<svg width="570" height="588" viewBox="0 0 570 588" fill="none" xmlns="http://www.w3.org/2000/svg">
<g filter="url(#filter0_d_57_59)">
<path d="M565.261 290C565.261 450.163 439.618 580 284.63 580C129.643 580 4 450.163 4 290C4 129.837 129.643 0 284.63 0C439.618 0 565.261 129.837 565.261 290ZM9.61261 290C9.61261 446.959 132.742 574.2 284.63 574.2C436.519 574.2 559.648 446.959 559.648 290C559.648 133.041 436.519 5.79999 284.63 5.79999C132.742 5.79999 9.61261 133.041 9.61261 290Z" fill="#D9D9D9"/>
</g>
<path d="M471.871 286C471.871 392.591 388.177 479 284.935 479C181.694 479 98 392.591 98 286C98 179.409 181.694 93 284.935 93C388.177 93 471.871 179.409 471.871 286ZM103.608 286C103.608 389.393 184.791 473.21 284.935 473.21C385.08 473.21 466.263 389.393 466.263 286C466.263 182.607 385.08 98.79 284.935 98.79C184.791 98.79 103.608 182.607 103.608 286Z" fill="#D9D9D9"/>
<defs>
<filter id="filter0_d_57_59" x="0" y="0" width="569.261" height="588" filterUnits="userSpaceOnUse" color-interpolation-filters="sRGB">
<feFlood flood-opacity="0" result="BackgroundImageFix"/>
<feColorMatrix in="SourceAlpha" type="matrix" values="0 0 0 0 0 0 0 0 0 0 0 0 0 0 0 0 0 0 127 0" result="hardAlpha"/>
<feOffset dy="4"/>
<feGaussianBlur stdDeviation="2"/>
<feComposite in2="hardAlpha" operator="out"/>
<feColorMatrix type="matrix" values="0 0 0 0 0 0 0 0 0 0 0 0 0 0 0 0 0 0 0.25 0"/>
<feBlend mode="normal" in2="BackgroundImageFix" result="effect1_dropShadow_57_59"/>
<feBlend mode="normal" in="SourceGraphic" in2="effect1_dropShadow_57_59" result="shape"/>
</filter>
</defs>
</svg>
