<svg width="80" height="78" viewBox="0 0 80 78" fill="none" xmlns="http://www.w3.org/2000/svg">
<path d="M74.6343 19.9108C71.0574 13.7856 66.2055 8.93625 60.0774 5.36168C53.9485 1.78692 47.2574 0 39.9996 0C32.7427 0 26.0495 1.78747 19.9218 5.36168C13.7932 8.93606 8.94155 13.7856 5.36464 19.9108C1.78827 26.0359 0 32.7245 0 39.9765C0 48.6877 2.54295 56.5211 7.63012 63.4786C12.7168 70.4367 19.2879 75.2514 27.3431 77.9233C28.2807 78.0973 28.9748 77.9749 29.4261 77.5594C29.8776 77.1434 30.1031 76.6223 30.1031 75.9984C30.1031 75.8943 30.0942 74.9577 30.0768 73.1876C30.059 71.4174 30.0506 69.8732 30.0506 68.5555L28.8526 68.7627C28.0888 68.9025 27.1253 68.9617 25.962 68.945C24.7992 68.9287 23.5921 68.807 22.3424 68.5805C21.0921 68.3561 19.9291 67.8356 18.8527 67.02C17.7767 66.2045 17.0129 65.137 16.5615 63.8192L16.0406 62.6214C15.6935 61.8239 15.147 60.938 14.4003 59.967C13.6537 58.995 12.8986 58.3361 12.1348 57.9892L11.7702 57.7283C11.5272 57.5549 11.3017 57.3458 11.0932 57.1031C10.8849 56.8604 10.7289 56.6176 10.6247 56.3744C10.5204 56.131 10.6069 55.9313 10.8851 55.7747C11.1633 55.6181 11.666 55.5421 12.3955 55.5421L13.4368 55.6976C14.1312 55.8367 14.9903 56.2522 16.0149 56.9467C17.039 57.6406 17.8809 58.5427 18.5407 59.6527C19.3397 61.0758 20.3024 62.1603 21.4314 62.9065C22.5595 63.6528 23.6969 64.0252 24.8425 64.0252C25.9881 64.0252 26.9775 63.9385 27.8112 63.7658C28.6439 63.5922 29.4252 63.3313 30.1547 62.9846C30.4672 60.6585 31.318 58.8716 32.7064 57.6225C30.7275 57.4147 28.9484 57.1016 27.3681 56.6854C25.7887 56.2686 24.1566 55.5922 22.4728 54.6543C20.7882 53.7178 19.3906 52.5547 18.2799 51.1673C17.1689 49.7791 16.2572 47.9566 15.5459 45.7015C14.8343 43.4455 14.4784 40.843 14.4784 37.8935C14.4784 33.6937 15.8502 30.1199 18.5933 27.1699C17.3083 24.0125 17.4296 20.4729 18.9576 16.5516C19.9645 16.2389 21.4578 16.4736 23.4367 17.2541C25.416 18.0349 26.8651 18.7039 27.7856 19.2585C28.7061 19.8129 29.4437 20.2828 29.9993 20.6638C33.2291 19.7619 36.5621 19.3108 39.9993 19.3108C43.4364 19.3108 46.7702 19.7619 50.0001 20.6638L51.9792 19.4151C53.3326 18.5819 54.9308 17.8183 56.77 17.1243C58.6102 16.4305 60.0174 16.2395 60.9901 16.5521C62.552 20.4737 62.6912 24.013 61.4058 27.1705C64.1487 30.1204 65.5211 33.6952 65.5211 37.894C65.5211 40.8436 65.1639 43.4542 64.4534 45.7276C63.7419 48.0013 62.8223 49.8219 61.6942 51.1934C60.5649 52.5646 59.1584 53.7185 57.4747 54.6549C55.7905 55.592 54.1579 56.2684 52.5785 56.6852C50.9983 57.102 49.2192 57.4152 47.2403 57.6234C49.0452 59.1845 49.9478 61.6485 49.9478 65.0145V75.9969C49.9478 76.6208 50.1649 77.1417 50.5994 77.558C51.0334 77.9735 51.7187 78.0958 52.6564 77.9217C60.7126 75.2502 67.2838 70.4353 72.3702 63.4772C77.4561 56.5197 80 48.6863 80 39.975C79.9982 32.7239 78.209 26.0359 74.6343 19.9108Z" fill="#524BE0"/>
</svg>
