<svg width="86" height="86" viewBox="0 0 86 86" fill="none" xmlns="http://www.w3.org/2000/svg">
<g filter="url(#filter0_d_295_110)">
<path d="M76.7684 19.9108C73.2809 13.7856 68.5504 8.93625 62.5755 5.36168C56.5998 1.78692 50.076 0 42.9996 0C35.9242 0 29.3983 1.78747 23.4238 5.36168C17.4484 8.93607 12.718 13.7856 9.23052 19.9108C5.74357 26.0359 4 32.7245 4 39.9765C4 48.6877 6.47938 56.5211 11.4394 63.4786C16.3988 70.4367 22.8057 75.2514 30.6595 77.9233C31.5737 78.0973 32.2505 77.9749 32.6905 77.5594C33.1307 77.1434 33.3505 76.6223 33.3505 75.9984C33.3505 75.8943 33.3418 74.9577 33.3249 73.1876C33.3075 71.4174 33.2993 69.8732 33.2993 68.5555L32.1313 68.7627C31.3866 68.9025 30.4471 68.9618 29.3129 68.945C28.1792 68.9287 27.0023 68.807 25.7838 68.5805C24.5648 68.3561 23.4309 67.8356 22.3813 67.02C21.3323 66.2045 20.5876 65.137 20.1474 63.8192L19.6396 62.6214C19.3012 61.8239 18.7683 60.938 18.0403 59.967C17.3123 58.995 16.5762 58.3361 15.8315 57.9892L15.4759 57.7283C15.239 57.5549 15.0192 57.3458 14.8159 57.1031C14.6128 56.8604 14.4607 56.6176 14.3591 56.3744C14.2574 56.131 14.3417 55.9313 14.6129 55.7747C14.8842 55.6181 15.3744 55.5421 16.0856 55.5421L17.1008 55.6976C17.778 55.8367 18.6155 56.2522 19.6146 56.9467C20.6131 57.6406 21.4339 58.5427 22.0772 59.6527C22.8562 61.0758 23.7948 62.1603 24.8956 62.9065C25.9955 63.6528 27.1044 64.0252 28.2214 64.0252C29.3384 64.0252 30.3031 63.9385 31.1159 63.7658C31.9278 63.5922 32.6896 63.3313 33.4009 62.9846C33.7055 60.6585 34.5351 58.8716 35.8888 57.6225C33.9594 57.4147 32.2247 57.1016 30.6839 56.6854C29.144 56.2686 27.5526 55.5922 25.911 54.6543C24.2684 53.7178 22.9059 52.5547 21.8229 51.1673C20.7397 49.7791 19.8507 47.9566 19.1573 45.7015C18.4634 43.4455 18.1164 40.843 18.1164 37.8935C18.1164 33.6937 19.4539 30.1199 22.1284 27.1699C20.8756 24.0125 20.9939 20.4729 22.4836 16.5516C23.4654 16.2389 24.9214 16.4736 26.8508 17.2541C28.7806 18.0349 30.1935 18.7039 31.091 19.2585C31.9885 19.8129 32.7076 20.2828 33.2493 20.6638C36.3984 19.7619 39.648 19.3108 42.9993 19.3108C46.3505 19.3108 49.6009 19.7619 52.7501 20.6638L54.6797 19.4151C55.9993 18.5819 57.5575 17.8183 59.3507 17.1243C61.145 16.4305 62.517 16.2395 63.4653 16.5521C64.9882 20.4737 65.1239 24.013 63.8707 27.1705C66.545 30.1204 67.883 33.6952 67.883 37.894C67.883 40.8436 67.5348 43.4542 66.842 45.7276C66.1484 48.0013 65.2518 49.8219 64.1519 51.1934C63.0507 52.5646 61.6794 53.7185 60.0378 54.6549C58.3958 55.592 56.8039 56.2684 55.264 56.6852C53.7234 57.102 51.9887 57.4152 50.0593 57.6234C51.819 59.1845 52.6991 61.6485 52.6991 65.0145V75.9969C52.6991 76.6208 52.9107 77.1417 53.3344 77.558C53.7575 77.9735 54.4258 78.0958 55.34 77.9217C63.1948 75.2502 69.6017 70.4353 74.561 63.4772C79.5197 56.5197 82 48.6863 82 39.975C81.9982 32.7239 80.2538 26.0359 76.7684 19.9108Z" fill="#524BE0"/>
</g>
<defs>
<filter id="filter0_d_295_110" x="0" y="0" width="86" height="86" filterUnits="userSpaceOnUse" color-interpolation-filters="sRGB">
<feFlood flood-opacity="0" result="BackgroundImageFix"/>
<feColorMatrix in="SourceAlpha" type="matrix" values="0 0 0 0 0 0 0 0 0 0 0 0 0 0 0 0 0 0 127 0" result="hardAlpha"/>
<feOffset dy="4"/>
<feGaussianBlur stdDeviation="2"/>
<feComposite in2="hardAlpha" operator="out"/>
<feColorMatrix type="matrix" values="0 0 0 0 0 0 0 0 0 0 0 0 0 0 0 0 0 0 0.25 0"/>
<feBlend mode="normal" in2="BackgroundImageFix" result="effect1_dropShadow_295_110"/>
<feBlend mode="normal" in="SourceGraphic" in2="effect1_dropShadow_295_110" result="shape"/>
</filter>
</defs>
</svg>
