<svg width="70" height="86" viewBox="0 0 70 86" fill="none" xmlns="http://www.w3.org/2000/svg">
<g filter="url(#filter0_d_295_114)">
<path d="M65.3797 16.7375L48.3563 0.4875C48.042 0.181327 47.6137 0.0061052 47.1646 0H11.4155C9.60954 0 7.87756 0.68482 6.60055 1.90381C5.32355 3.12279 4.60614 4.77609 4.60614 6.5V71.5C4.60614 73.2239 5.32355 74.8772 6.60055 76.0962C7.87756 77.3152 9.60954 78 11.4155 78H59.081C60.887 78 62.6189 77.3152 63.8959 76.0962C65.1729 74.8772 65.8904 73.2239 65.8904 71.5V17.875C65.884 17.4464 65.7004 17.0375 65.3797 16.7375ZM36.9506 58.5H19.9272C19.4757 58.5 19.0427 58.3288 18.7235 58.0241C18.4042 57.7193 18.2249 57.306 18.2249 56.875C18.2249 56.444 18.4042 56.0307 18.7235 55.726C19.0427 55.4212 19.4757 55.25 19.9272 55.25H36.9506C37.4021 55.25 37.8351 55.4212 38.1543 55.726C38.4736 56.0307 38.6529 56.444 38.6529 56.875C38.6529 57.306 38.4736 57.7193 38.1543 58.0241C37.8351 58.3288 37.4021 58.5 36.9506 58.5ZM50.5693 52H19.9272C19.4757 52 19.0427 51.8288 18.7235 51.5241C18.4042 51.2193 18.2249 50.806 18.2249 50.375C18.2249 49.944 18.4042 49.5307 18.7235 49.226C19.0427 48.9212 19.4757 48.75 19.9272 48.75H50.5693C51.0208 48.75 51.4538 48.9212 51.773 49.226C52.0923 49.5307 52.2716 49.944 52.2716 50.375C52.2716 50.806 52.0923 51.2193 51.773 51.5241C51.4538 51.8288 51.0208 52 50.5693 52ZM50.5693 45.5H19.9272C19.4757 45.5 19.0427 45.3288 18.7235 45.024C18.4042 44.7193 18.2249 44.306 18.2249 43.875C18.2249 43.444 18.4042 43.0307 18.7235 42.726C19.0427 42.4212 19.4757 42.25 19.9272 42.25H50.5693C51.0208 42.25 51.4538 42.4212 51.773 42.726C52.0923 43.0307 52.2716 43.444 52.2716 43.875C52.2716 44.306 52.0923 44.7193 51.773 45.024C51.4538 45.3288 51.0208 45.5 50.5693 45.5ZM50.5693 39H19.9272C19.4757 39 19.0427 38.8288 18.7235 38.5241C18.4042 38.2193 18.2249 37.806 18.2249 37.375C18.2249 36.944 18.4042 36.5307 18.7235 36.226C19.0427 35.9212 19.4757 35.75 19.9272 35.75H50.5693C51.0208 35.75 51.4538 35.9212 51.773 36.226C52.0923 36.5307 52.2716 36.944 52.2716 37.375C52.2716 37.806 52.0923 38.2193 51.773 38.5241C51.4538 38.8288 51.0208 39 50.5693 39ZM52.2716 16.25C51.3687 16.25 50.5027 15.9076 49.8642 15.2981C49.2257 14.6886 48.867 13.862 48.867 13V5.5575L60.0684 16.25H52.2716Z" fill="#524BE0"/>
</g>
<defs>
<filter id="filter0_d_295_114" x="0.60614" y="0" width="69.2842" height="86" filterUnits="userSpaceOnUse" color-interpolation-filters="sRGB">
<feFlood flood-opacity="0" result="BackgroundImageFix"/>
<feColorMatrix in="SourceAlpha" type="matrix" values="0 0 0 0 0 0 0 0 0 0 0 0 0 0 0 0 0 0 127 0" result="hardAlpha"/>
<feOffset dy="4"/>
<feGaussianBlur stdDeviation="2"/>
<feComposite in2="hardAlpha" operator="out"/>
<feColorMatrix type="matrix" values="0 0 0 0 0 0 0 0 0 0 0 0 0 0 0 0 0 0 0.25 0"/>
<feBlend mode="normal" in2="BackgroundImageFix" result="effect1_dropShadow_295_114"/>
<feBlend mode="normal" in="SourceGraphic" in2="effect1_dropShadow_295_114" result="shape"/>
</filter>
</defs>
</svg>
