<svg width="82" height="86" viewBox="0 0 82 86" fill="none" xmlns="http://www.w3.org/2000/svg">
<g filter="url(#filter0_d_295_84)">
<path d="M72.0438 0.000545332H9.87588C9.17705 -0.00976855 8.48316 0.126309 7.83382 0.401006C7.18449 0.675704 6.59244 1.08364 6.09148 1.60152C5.59052 2.1194 5.19046 2.73708 4.91416 3.41927C4.63785 4.10147 4.49071 4.83483 4.48114 5.57747V72.4225C4.49071 73.1652 4.63785 73.8985 4.91416 74.5807C5.19046 75.2629 5.59052 75.8806 6.09148 76.3985C6.59244 76.9164 7.18449 77.3243 7.83382 77.599C8.48316 77.8737 9.17705 78.0098 9.87588 77.9995H72.0438C72.7426 78.0098 73.4365 77.8737 74.0859 77.599C74.7352 77.3243 75.3272 76.9164 75.8282 76.3985C76.3292 75.8806 76.7292 75.2629 77.0055 74.5807C77.2818 73.8985 77.429 73.1652 77.4385 72.4225V5.57747C77.429 4.83483 77.2818 4.10147 77.0055 3.41927C76.7292 2.73708 76.3292 2.1194 75.8282 1.60152C75.3272 1.08364 74.7352 0.675704 74.0859 0.401006C73.4365 0.126309 72.7426 -0.00976855 72.0438 0.000545332ZM26.6106 65.2856H15.6009V30.1861H26.6106V65.2856ZM21.1057 25.2722C19.5874 25.2722 18.1312 24.6312 17.0575 23.4903C15.9839 22.3493 15.3807 20.8018 15.3807 19.1883C15.3807 17.5747 15.9839 16.0273 17.0575 14.8863C18.1312 13.7453 19.5874 13.1044 21.1057 13.1044C21.912 13.0072 22.7285 13.0921 23.5017 13.3535C24.275 13.6149 24.9875 14.0469 25.5928 14.6213C26.198 15.1956 26.6822 15.8994 27.0138 16.6864C27.3453 17.4734 27.5167 18.326 27.5167 19.1883C27.5167 20.0506 27.3453 20.9031 27.0138 21.6902C26.6822 22.4772 26.198 23.1809 25.5928 23.7553C24.9875 24.3296 24.275 24.7616 23.5017 25.0231C22.7285 25.2845 21.912 25.3694 21.1057 25.2722ZM66.3188 65.2856H55.3091V46.4489C55.3091 41.73 53.7311 38.649 49.7309 38.649C48.4929 38.6586 47.2874 39.0713 46.2769 39.8314C45.2664 40.5914 44.4994 41.6624 44.0793 42.8999C43.7921 43.8166 43.6676 44.782 43.7123 45.7469V65.2466H32.7026C32.7026 65.2466 32.7026 33.3451 32.7026 30.1471H43.7123V35.1001C44.7124 33.2558 46.1671 31.7364 47.9196 30.7056C49.6721 29.6748 51.656 29.1716 53.6577 29.2501C60.9974 29.2501 66.3188 34.2811 66.3188 45.0839V65.2856Z" fill="#524BE0"/>
</g>
<defs>
<filter id="filter0_d_295_84" x="0.48114" y="0" width="80.9574" height="86" filterUnits="userSpaceOnUse" color-interpolation-filters="sRGB">
<feFlood flood-opacity="0" result="BackgroundImageFix"/>
<feColorMatrix in="SourceAlpha" type="matrix" values="0 0 0 0 0 0 0 0 0 0 0 0 0 0 0 0 0 0 127 0" result="hardAlpha"/>
<feOffset dy="4"/>
<feGaussianBlur stdDeviation="2"/>
<feComposite in2="hardAlpha" operator="out"/>
<feColorMatrix type="matrix" values="0 0 0 0 0 0 0 0 0 0 0 0 0 0 0 0 0 0 0.25 0"/>
<feBlend mode="normal" in2="BackgroundImageFix" result="effect1_dropShadow_295_84"/>
<feBlend mode="normal" in="SourceGraphic" in2="effect1_dropShadow_295_84" result="shape"/>
</filter>
</defs>
</svg>
