<svg width="128" height="128" viewBox="0 0 128 128" fill="none" xmlns="http://www.w3.org/2000/svg">
<g clip-path="url(#clip0_302_65)">
<path d="M41.1745 85.1706C39.9883 85.1706 38.9364 83.9156 38.5556 82.0455L38.5338 81.9331L41.6552 80.5906L38.7492 78.3272L38.7804 78.2335C39.2798 76.7943 40.1725 75.9326 41.1745 75.9326C42.7008 75.9326 43.94 78.0056 43.94 80.5532C43.94 83.1007 42.7008 85.1737 41.1745 85.1737V85.1706Z" fill="#524BE0"/>
<path d="M41.1745 76.073C40.21 76.073 39.3672 76.9596 38.9115 78.2803L41.9267 80.628L38.693 82.0204C39.0488 83.775 40.0258 85.0331 41.1745 85.0331C42.6259 85.0331 43.7996 83.0288 43.7996 80.5531C43.7996 78.0773 42.6228 76.073 41.1745 76.073Z" fill="#524BE0"/>
<path d="M35.3374 78.4049C35.3967 77.8304 35.4123 77.2497 35.3905 76.669C35.2594 76.4973 35.0721 76.3194 34.7974 76.207C34.6257 76.1352 34.4447 76.1008 34.2605 76.1008C34.0171 76.1008 33.8079 76.1633 33.6612 76.2226C33.552 76.9063 33.4552 77.5931 33.3522 78.2769C33.4521 78.23 33.655 78.1489 33.9078 78.1489C34.0452 78.1489 34.1825 78.1738 34.3105 78.2207C34.3667 78.2425 34.4197 78.2675 34.4697 78.2925C34.6226 78.3518 34.7631 78.4361 34.891 78.5422C35.0159 78.5859 35.1345 78.6421 35.2531 78.7077L35.3374 78.4017V78.4049Z" fill="#524BE0"/>
<path d="M35.3906 77.6935C35.3999 77.4438 35.403 77.194 35.3999 76.9411C35.2907 76.7382 35.094 76.4791 34.7444 76.3355C34.2637 76.1357 33.833 76.2918 33.6363 76.3854C33.5458 76.9599 33.4647 77.5374 33.3773 78.1119C33.5739 78.0338 33.9454 77.9371 34.3605 78.09C34.682 78.2087 34.8849 78.4272 34.9941 78.5833C35.0378 78.602 35.0847 78.6208 35.1284 78.6426C35.2158 78.3273 35.3032 78.0089 35.3906 77.6935Z" fill="#524BE0"/>
<path d="M35.3125 78.6238C35.3937 77.9588 35.4155 77.2845 35.3874 76.6164C35.2563 76.4509 35.069 76.2854 34.81 76.1762C34.6352 76.1044 34.4479 76.0669 34.2575 76.0669C34.0171 76.0669 33.8142 76.1262 33.6675 76.1824C33.5552 76.8942 33.4553 77.606 33.346 78.3179C33.4397 78.2679 33.6457 78.1836 33.9048 78.1836C34.0047 78.1836 34.1014 78.1961 34.1982 78.2211C34.4604 78.2585 34.6945 78.3772 34.8942 78.5458C35.0285 78.5957 35.1596 78.655 35.2844 78.7268L35.3125 78.6207V78.6238ZM34.4198 77.9276C34.2544 77.8652 34.0827 77.8371 33.9048 77.8371C33.7268 77.8371 33.5864 77.8652 33.4615 77.9026L33.6863 76.5602C33.7893 76.5071 33.9984 76.4166 34.2575 76.4166C34.4011 76.4166 34.5415 76.4447 34.6758 76.5009C35.1252 76.6882 35.2875 77.0972 35.3344 77.2408L35.0285 78.3491C34.8942 78.1961 34.6945 78.0306 34.4198 77.9307V77.9276Z" fill="#524BE0"/>
<path d="M35.094 78.63C35.1159 78.6393 35.1377 78.6518 35.1564 78.6612L35.3781 77.8557C35.3843 77.7527 35.3874 77.6497 35.3905 77.5466L35.0909 78.63H35.094Z" fill="#524BE0"/>
<path d="M35.3999 77.0254C35.3999 76.9754 35.3999 76.9255 35.3999 76.8724C35.2813 76.6726 35.0847 76.4385 34.76 76.3042C34.2856 76.1075 33.8548 76.248 33.6457 76.3448C33.6426 76.3729 33.6363 76.401 33.6332 76.4291C33.8111 76.3386 34.2481 76.1668 34.7351 76.3698C35.1096 76.5259 35.3063 76.8193 35.403 77.0254H35.3999Z" fill="#524BE0"/>
<path d="M34.348 78.1242C34.6289 78.2272 34.8162 78.4083 34.9317 78.5613C34.9723 78.5769 35.0129 78.5925 35.0534 78.6113C34.9411 78.4364 34.7257 78.1898 34.3698 78.0587C34.2044 77.9993 34.0483 77.9744 33.9048 77.9744C33.6925 77.9744 33.5115 78.0243 33.3835 78.0743C33.3804 78.1024 33.3741 78.1273 33.371 78.1554C33.5676 78.0743 33.936 77.9744 34.348 78.1242Z" fill="#524BE0"/>
<path d="M46.3528 74.6216C42.6696 74.6216 40.4284 74.7246 39.6949 74.9275L39.6699 74.9338C39.5545 74.965 39.3172 75.0337 39.0769 75.0337C38.8365 75.0337 38.6617 74.9681 38.5431 74.8401C38.4401 74.7246 38.3871 74.5685 38.3871 74.3749C38.3871 73.9659 38.5837 73.3946 38.7148 73.0137L38.721 72.995C38.9177 72.4237 39.1955 71.8586 39.5482 71.3154C39.7105 71.0656 39.8916 70.8221 40.0788 70.5911C40.1381 70.5224 40.2162 70.4475 40.3005 70.3725C40.4191 70.2633 40.5658 70.129 40.6064 70.0353L40.8654 70.1415C40.7094 70.5224 40.6032 70.9314 40.5564 71.3435C41.137 70.5755 42.0797 70.0666 43.041 70.0385C43.1753 70.0353 43.3126 70.0322 43.4468 70.0322C45.7473 70.0322 48.0259 70.6379 50.6166 71.9429H50.6229L51.2721 72.3644L50.9475 75.6175L46.3528 74.6216Z" fill="#524BE0"/>
<path d="M46.3653 74.4842C42.0391 74.4842 40.2786 74.6215 39.6574 74.7932C39.5076 74.8338 38.899 75.0243 38.643 74.7433C38.5681 74.6621 38.5244 74.5403 38.5244 74.3718C38.5244 73.9784 38.721 73.4133 38.8521 73.0387C39.0519 72.458 39.3328 71.9023 39.6668 71.3903C39.826 71.1436 40.0008 70.9063 40.1881 70.6816C40.3285 70.513 40.6563 70.2851 40.7374 70.0884C40.5033 70.6535 40.3847 71.2654 40.391 71.8773C40.8842 70.8907 41.9454 70.2133 43.0473 70.1789C45.741 70.0946 48.1476 70.8564 50.5573 72.0677L51.1285 72.4361L50.8258 75.4488C49.34 75.1273 47.8542 74.8057 46.3684 74.4842H46.3653Z" fill="#524BE0"/>
<path d="M71.8421 94.4336L71.7328 94.521L71.6236 94.6053C71.3551 94.265 71.0961 93.9029 70.8557 93.5313C69.2326 91.0306 68.3368 87.9742 68.3368 84.924C68.3368 83.3724 68.5615 81.8457 69.0047 80.3877C69.3824 79.1015 69.9349 77.8652 70.6528 76.7131L70.7714 76.7849L70.8901 76.8567C69.4292 79.2451 68.6583 82.0518 68.6583 84.9739C68.6583 85.052 68.6583 85.1332 68.6583 85.2143C68.6895 88.5705 69.8194 91.8423 71.8421 94.4336Z" fill="#524BE0"/>
<path d="M68.5209 85.2174C68.4772 82.1641 69.2732 79.2357 70.7714 76.7849C70.0723 77.9088 69.5167 79.1358 69.139 80.4283C67.8155 84.7835 68.5022 89.6538 70.9743 93.4564C71.2147 93.8248 71.4675 94.1807 71.736 94.5179C69.7352 91.9547 68.5553 88.6329 68.5241 85.2143L68.5209 85.2174ZM68.5209 85.2174C68.4772 82.1641 69.2732 79.2357 70.7714 76.7849C70.0723 77.9088 69.5167 79.1358 69.139 80.4283C67.8155 84.7835 68.5022 89.6538 70.9743 93.4564C71.2147 93.8248 71.4675 94.1807 71.736 94.5179C69.7352 91.9547 68.5553 88.6329 68.5241 85.2143L68.5209 85.2174ZM68.5209 85.2174C68.4772 82.1641 69.2732 79.2357 70.7714 76.7849C70.0723 77.9088 69.5167 79.1358 69.139 80.4283C67.8155 84.7835 68.5022 89.6538 70.9743 93.4564C71.2147 93.8248 71.4675 94.1807 71.736 94.5179C69.7352 91.9547 68.5553 88.6329 68.5241 85.2143L68.5209 85.2174ZM68.5209 85.2174C68.4772 82.1641 69.2732 79.2357 70.7714 76.7849C70.0723 77.9088 69.5167 79.1358 69.139 80.4283C67.8155 84.7835 68.5022 89.6538 70.9743 93.4564C71.2147 93.8248 71.4675 94.1807 71.736 94.5179C69.7352 91.9547 68.5553 88.6329 68.5241 85.2143L68.5209 85.2174Z" fill="#524BE0"/>
<path d="M80.0045 70.5534L79.9764 70.416C77.4294 70.7438 75.0415 71.8896 73.075 73.7285C72.1511 74.5932 71.3426 75.586 70.6684 76.685L70.787 76.7568L70.9057 76.8317C72.251 74.6775 74.0676 72.9761 76.1621 71.9115C77.317 71.3214 78.5437 70.9218 79.811 70.7313C79.8609 70.722 79.9109 70.7157 79.9452 70.7095C79.9702 70.7064 79.9951 70.7001 80.017 70.6939C80.0201 70.6939 80.0263 70.6939 80.0295 70.6908L80.0014 70.5565L80.0045 70.5534ZM71.0118 95.0642L70.7933 95.239C70.7933 95.239 70.7995 95.2484 70.8058 95.2546C70.8058 95.2577 70.812 95.2609 70.812 95.264C70.812 95.264 70.812 95.2671 70.8151 95.2702L70.8869 95.3608L70.9962 95.2734L71.1054 95.1859L71.0087 95.0642H71.0118ZM80.4134 99.2883C80.4134 99.2883 80.404 99.2883 80.3978 99.2883L80.3229 99.2789C78.6841 99.0728 77.1422 98.5702 75.7438 97.7928C75.7344 97.7866 75.7251 97.7835 75.7157 97.7772C74.4828 97.0872 73.3622 96.1819 72.3821 95.0798L72.2791 95.1703L72.1729 95.264C72.8253 96.0039 73.5495 96.6689 74.3329 97.234C76.2339 98.5702 78.2721 99.3538 80.3884 99.5661L80.404 99.4287L80.4196 99.2914C80.4196 99.2914 80.4196 99.2914 80.4165 99.2914L80.4134 99.2883Z" fill="#524BE0"/>
<path d="M80.3042 99.4164C77.1703 99.0261 74.3829 97.5401 72.2791 95.1736C72.9221 95.9041 73.6369 96.5566 74.4141 97.1217C76.3057 98.4517 78.3439 99.2228 80.4009 99.4289L80.3042 99.4164ZM73.1718 73.8285C72.251 74.6902 71.4519 75.6767 70.7902 76.7569C72.123 74.6246 73.9709 72.87 76.1028 71.7867C77.2733 71.1904 78.5125 70.7877 79.7923 70.5941C79.8422 70.5879 79.889 70.5785 79.9265 70.5723C79.9515 70.5691 79.9733 70.5629 79.9983 70.5566C77.4949 70.8782 75.132 72.0021 73.1749 73.8316L73.1718 73.8285ZM70.9026 95.1517C70.9026 95.1517 70.9182 95.1736 70.9275 95.183C70.9525 95.2142 70.9744 95.2423 70.9993 95.2735C70.9681 95.2329 70.9369 95.1923 70.9026 95.1517Z" fill="#524BE0"/>
<path d="M71.0118 95.0642L70.7933 95.239C70.7933 95.239 70.7995 95.2484 70.8058 95.2546C70.8058 95.2578 70.812 95.2609 70.812 95.264C70.812 95.264 70.812 95.2671 70.8152 95.2703L70.8869 95.3608L70.9962 95.2734L71.1054 95.186L71.0087 95.0642H71.0118ZM71.3364 95.4701L71.2958 95.4107H70.9244L71.1179 95.6418C71.1179 95.6418 71.1273 95.6543 71.1335 95.6605L71.3395 95.4701H71.3364Z" fill="#524BE0"/>
<path d="M71.2241 95.5512C71.2241 95.5512 71.2303 95.5606 71.2365 95.5637C71.2334 95.5606 71.2303 95.5543 71.2272 95.5512H71.2241ZM70.9026 95.1516C70.9026 95.1516 70.9182 95.1735 70.9275 95.1828C70.9525 95.214 70.9744 95.2421 70.9993 95.2734C70.9681 95.2328 70.9369 95.1922 70.9026 95.1516Z" fill="#524BE0"/>
<path d="M69.8687 105.675L69.6072 105.592V105.595L69.7395 105.635L69.8687 105.675Z" fill="#524BE0"/>
<path d="M64.6425 78.0356L64.7502 77.9495L64.5287 78.1126L64.5318 78.1187L64.6425 78.0356Z" fill="#524BE0"/>
<path d="M81.2437 69.236C82.5703 69.289 83.6815 69.5325 84.5056 69.7792C85.7541 66.2045 87.3741 59.0863 84.3401 51.3032C80.8473 42.3337 73.356 38.3313 70.5342 36.8234C65.8397 34.3164 61.5634 33.6015 59.4315 33.3985C56.4724 33.1176 54.0752 33.4547 52.1461 33.7295L51.987 33.7513C49.6053 34.0854 47.2549 34.6255 44.9638 35.3592C48.7719 35.4653 52.4645 35.9461 55.973 36.7859C60.1026 37.7787 63.8857 39.2492 67.2193 41.1567C73.871 44.9687 78.2971 50.3135 79.683 56.2141C80.635 60.2696 80.1387 64.8339 78.2503 69.4576C79.04 69.3078 80.0576 69.186 81.2437 69.2328V69.236ZM78.4719 69.2765C80.2917 64.7122 80.7568 60.1884 79.8172 56.1829C78.4251 50.2448 73.974 44.8656 67.288 41.0381C63.9419 39.1212 60.1463 37.6476 56.0042 36.6517C52.7486 35.868 49.315 35.3997 45.7879 35.2499C47.823 34.6411 49.9081 34.1853 52.0026 33.8887L52.1618 33.8668C53.6007 33.6639 55.2332 33.4329 57.1841 33.4329C57.9301 33.4329 58.6823 33.4672 59.4159 33.539C61.5384 33.742 65.796 34.4538 70.4656 36.9483C73.2748 38.4468 80.7318 42.4336 84.2059 51.3563C87.1899 59.0145 85.6386 66.0328 84.4119 69.6106C83.3787 69.314 82.3143 69.1392 81.2437 69.0986C81.0689 69.0923 80.891 69.0892 80.7193 69.0892C79.9671 69.0892 79.2117 69.1548 78.4688 69.2797L78.4719 69.2765Z" fill="#524BE0"/>
<path d="M71.2958 95.4108H70.9244L71.1179 95.6419C71.1179 95.6419 71.1273 95.6544 71.1335 95.6606L71.3395 95.4702L71.2989 95.4077L71.2958 95.4108Z" fill="#524BE0"/>
<path d="M71.1054 95.186L71.0087 95.0642L70.7902 95.239C70.7902 95.239 70.7964 95.2484 70.8027 95.2546C70.8027 95.2578 70.8089 95.2609 70.8089 95.264C70.8089 95.264 70.8089 95.2671 70.812 95.2703L70.8838 95.3608L70.9931 95.2734L71.1023 95.186H71.1054Z" fill="#524BE0"/>
<path d="M92.0437 74.506C90.3082 72.3455 88.067 70.7689 85.5575 69.9353C86.3097 67.7312 86.8091 65.3304 87.0058 62.9858C87.3616 58.7773 86.7935 54.7187 85.314 50.9224C81.6807 41.5907 73.9397 37.4572 71.0274 35.9024C66.1736 33.3081 61.7413 32.5681 59.5313 32.359C58.7572 32.284 57.9675 32.2466 57.1809 32.2466C55.1645 32.2466 53.4883 32.4807 52.0088 32.6899L51.8402 32.7149C48.5285 33.1801 45.2697 34.0324 42.1546 35.2437L39.8011 36.1584L39.8541 36.4269L42.3793 36.3864C42.679 36.3801 42.9817 36.3801 43.2814 36.3801C51.9183 36.3801 60.2149 38.3876 66.645 42.034C73.0688 45.6774 77.3388 50.8006 78.6654 56.4514C79.5894 60.3914 79.0618 64.8683 77.136 69.4108C75.4379 69.6263 73.8148 70.1726 72.304 71.0343C70.2346 72.2175 68.4335 73.9908 67.0976 76.1606C66.1861 77.6436 65.5088 79.2639 65.0874 80.956C65.078 80.9935 65.0687 81.034 65.0593 81.0715C64.7878 82.1892 64.6286 83.3412 64.588 84.5026C64.4756 87.6308 65.2279 90.681 66.7636 93.3222C68.3399 96.1383 70.7964 98.3643 73.6837 99.6068L72.7566 101.596V101.739C72.7504 101.964 72.8066 102.173 72.8815 102.463L72.8877 102.492C72.9346 102.669 72.9907 102.891 73.0501 103.175C73.3029 104.374 73.7461 106.2 74.1394 107.811C74.6576 109.938 75.3599 112.835 75.4473 113.618C69.8194 122.282 63.8825 126.15 56.2039 126.15C55.2863 126.15 54.3186 126.094 53.3385 125.985H53.3229C53.2417 125.975 53.1668 125.938 53.1013 125.875L53.0888 125.863C52.4458 125.267 51.8465 124.614 51.3065 123.927C50.5698 122.962 49.9674 122.023 49.5554 121.199C52.4957 120.914 58.9601 120.196 64.4288 115.248C67.2006 113.013 70.1003 108.308 70.8058 106.172L70.8183 106.138C70.8401 106.082 70.8557 106.041 70.8682 106.007C70.9962 105.635 70.8151 105.386 70.7309 105.298C70.6716 105.236 70.5061 105.086 70.2408 105.086C70.194 105.086 70.144 105.092 70.0941 105.102H70.0816C70.0816 105.102 70.0723 105.108 70.0691 105.108H70.0473C70.0473 105.108 66.1393 107.246 65.359 107.671C62.4623 108.617 59.5126 109.482 56.5941 110.243C56.5317 110.259 50.4387 111.842 45.6693 112.332C45.1761 112.382 44.5549 112.41 43.4312 112.457L43.0972 112.469C42.2482 112.507 41.6489 112.523 41.1557 112.523C39.9009 112.523 39.2298 112.419 38.4963 112.117H38.4901L38.4838 112.114C38.4776 112.114 37.8065 111.892 37.279 111.439C34.2544 108.829 33.6738 100.756 33.4241 97.3028C33.3023 95.6325 33.2867 95.3765 33.0339 95.1299L32.909 95.0081L32.7405 94.9613C30.9426 94.4711 28.4735 93.3566 26.9409 90.8402C26.248 89.7226 25.7486 88.0523 25.7392 86.8285C27.2656 86.0199 30.0061 84.5401 31.392 82.3234L31.4264 82.261C31.9539 81.162 32.3971 79.4075 32.7717 77.4188C32.9153 76.4385 33.0589 75.4582 33.2586 74.4872C33.5614 72.4423 33.808 70.3631 34.0109 68.6366V68.6303C34.0952 67.9341 34.1545 67.4128 34.2075 66.9819C36.8264 68.4836 40.4441 69.4452 43.4937 69.4452C43.9275 69.4452 44.352 69.4265 44.7485 69.389C45.329 69.3547 45.457 68.9394 45.482 68.8114C45.5226 68.6022 45.5038 68.2151 44.9389 67.9622H44.9295C41.7519 66.6229 40.3192 64.5655 39.6762 63.0794C39.3391 62.2958 39.13 61.4654 39.0613 60.6412C41.1464 65.1493 45.2728 68.5929 49.9861 69.7106C50.0767 69.7355 50.1672 69.748 50.2515 69.748C50.6291 69.748 50.8102 69.492 50.857 69.4108C51.0349 69.1111 50.9631 68.7583 50.6666 68.4649C49.8675 67.6719 48.6377 66.1015 47.9291 64.7528L47.9167 64.731C47.3673 63.7756 46.8554 62.4863 46.4777 61.1219C46.9241 61.7339 47.4266 62.4238 47.9541 63.1512L48.7969 64.3095C50.523 66.6822 52.3085 69.1361 53.1575 70.2912L53.1824 70.3225C55.8263 73.4413 57.2028 77.6248 57.8926 80.5845C58.6792 83.9625 58.8072 86.6849 58.7229 87.1969L58.4794 88.7298L59.7561 87.8431C61.3605 86.7317 62.2532 84.9334 62.4061 82.5045C62.4467 81.8426 62.4311 81.1652 62.3749 80.4846C62.3749 80.4783 62.3749 80.4752 62.3749 80.469C62.3312 79.957 62.2625 79.4449 62.1783 78.9423C62.1751 78.9173 62.1689 78.8892 62.1658 78.8643C61.9691 77.7122 61.682 76.6039 61.3917 75.6455C61.8536 76.2636 62.1845 76.707 62.4124 77.0192L63.2583 78.1556C63.4736 78.4459 63.6297 78.652 63.689 78.7331C63.8264 78.9173 64.0293 79.0235 64.2509 79.0235C64.2758 79.0235 64.3008 79.0235 64.3258 79.0204C64.5724 78.9923 64.7784 78.8362 64.8814 78.5989L64.897 78.5645C64.9469 78.4241 64.9938 78.2867 65.0312 78.1712L65.0375 78.1556C65.0968 77.9776 65.1561 77.7965 65.2372 77.5874C65.2435 77.5686 65.9895 75.6986 67.675 73.5693C69.679 71.0405 72.0793 69.286 74.8043 68.3556C75.2319 68.2089 75.672 68.0809 76.1153 67.9778L76.5086 67.8842L76.6053 67.4908C77.2951 64.6998 77.779 60.3945 76.1839 55.724C74.6139 51.1253 71.7391 48.3842 70.0192 46.742C67.5127 44.3537 64.5786 42.3587 61.3012 40.8165C58.6417 39.5677 55.742 38.6061 52.6861 37.9661C49.0247 37.1949 45.9096 37.0357 43.94 37.0357C43.2065 37.0357 42.6634 37.0576 42.3325 37.0763C39.7917 37.223 33.8361 37.5665 27.4029 41.2067C23.2203 43.5732 19.5433 46.9449 16.7683 50.9661L16.7371 51.016C16.6591 51.1565 14.8518 54.4971 15.4262 58.5962C15.4855 59.0271 15.7726 59.2206 16.0192 59.2612C16.0567 59.2675 16.0972 59.2706 16.1347 59.2706C16.297 59.2706 16.606 59.2082 16.8089 58.7992L16.8183 58.7836C17.6236 57.0758 18.3946 55.7958 19.4028 54.5002C20.5546 53.0141 21.8781 51.7341 23.342 50.6757C21.9623 52.3679 20.9385 54.0475 20.2861 55.6834C19.3841 57.9469 19.1687 60.1666 19.6525 62.2771C20.2019 64.6779 21.6814 66.9538 23.9288 68.8645C25.7673 70.4255 28.099 71.7305 30.4993 72.536L31.1611 72.7576L31.3483 72.0833C31.6043 71.1529 32.0975 69.1486 32.4908 67.5376C32.6281 66.9788 32.753 66.4699 32.856 66.0485L32.9808 66.1546C32.8997 66.7821 32.8091 67.547 32.7061 68.4274L32.6999 68.4711C32.1974 72.7202 31.442 79.139 30.2527 81.6491C29.0198 83.5941 26.4072 84.9771 24.8434 85.8045L24.4657 86.0043L24.4376 86.3664C24.3159 87.8712 24.8964 90.0441 25.8172 91.5302C27.4841 94.262 30.0842 95.5326 32.0038 96.1195C32.0382 96.4411 32.0756 96.9625 32.1068 97.3902C32.2348 99.1853 32.4502 102.186 33.0433 105.083C33.7768 108.664 34.913 111.139 36.4175 112.435C37.1604 113.075 38.0344 113.353 38.1186 113.378C39.0051 113.712 39.7137 113.765 41.8487 113.79C42.3824 113.796 42.9224 113.799 43.4562 113.799C43.9525 113.799 44.4519 113.799 44.9482 113.793C45.2011 114.911 45.5382 116.016 45.9471 117.081C46.5464 118.626 47.3111 120.112 48.2257 121.501L48.2319 121.511C48.7906 122.719 49.6397 123.93 50.2577 124.739C50.8414 125.482 51.4875 126.184 52.1774 126.828C52.452 127.096 52.811 127.265 53.1918 127.302C54.2094 127.414 55.2113 127.474 56.1727 127.474C59.7654 127.474 62.9461 126.693 65.8958 125.092C69.7664 122.984 73.2935 119.413 76.6709 114.168L76.7583 114.03L76.7739 113.871C76.8238 113.334 76.4024 111.517 75.4254 107.502L75.4005 107.39C75.0009 105.738 74.5858 104.031 74.3486 102.907C74.283 102.585 74.2206 102.342 74.1675 102.145V102.133C74.1394 102.036 74.1145 101.936 74.0957 101.861L74.9291 100.075C76.2027 100.481 77.5043 100.684 78.7965 100.684C79.271 100.684 79.7486 100.656 80.2168 100.6C80.6475 100.646 81.0845 100.668 81.5184 100.668C83.5691 100.668 85.5699 100.163 87.4677 99.1697C92.4807 96.5379 95.6895 90.962 95.6395 84.9615V84.9522C95.652 81.1121 94.3754 77.4032 92.0437 74.5028V74.506ZM95.5022 84.9678C95.5521 90.9152 92.3745 96.4442 87.4053 99.0511C85.5137 100.044 83.5192 100.534 81.5215 100.534C81.0876 100.534 80.6538 100.512 80.2199 100.465C79.7486 100.522 79.2741 100.55 78.7996 100.55C77.4637 100.55 76.134 100.328 74.8573 99.9065L73.9553 101.845C73.9709 101.93 74.0021 102.048 74.0333 102.17C74.0832 102.367 74.1488 102.613 74.2143 102.938C74.4578 104.09 74.8823 105.841 75.2943 107.537C76.2432 111.445 76.6865 113.344 76.6397 113.859L76.6272 113.987L76.5585 114.093C73.1936 119.316 69.6852 122.875 65.8334 124.97C62.9212 126.553 59.7405 127.336 56.179 127.336C55.2176 127.336 54.2312 127.28 53.2136 127.165C52.8641 127.13 52.5332 126.977 52.2835 126.731C51.5968 126.094 50.9538 125.395 50.3763 124.655C49.7302 123.809 48.903 122.616 48.3537 121.426C47.6014 120.287 46.7773 118.82 46.0875 117.034C45.6131 115.81 45.2916 114.667 45.07 113.656C43.9369 113.668 42.8663 113.665 41.8612 113.656C39.7636 113.634 39.0488 113.584 38.1748 113.253C38.1748 113.253 37.2696 112.981 36.5205 112.335C35.0409 111.058 33.9204 108.611 33.1931 105.061C32.6031 102.179 32.3878 99.1822 32.2598 97.3871C32.2223 96.8595 32.1818 96.3194 32.1474 96.0196C30.1747 95.4296 27.6027 94.1652 25.9515 91.4646C25.0431 90.0004 24.4719 87.8619 24.5905 86.3851L24.6124 86.0979L24.9214 85.9356C26.5008 85.0989 29.1384 83.7034 30.387 81.724C31.5856 79.1983 32.3441 72.7607 32.8497 68.493C32.959 67.5689 33.0557 66.754 33.14 66.1046C33.0276 66.011 32.9059 65.9111 32.7842 65.8081C32.6718 66.267 32.5251 66.857 32.3659 67.5127C31.9695 69.1236 31.4794 71.1311 31.2235 72.0552L31.0768 72.5859L30.5524 72.4111C28.1676 71.6118 25.8516 70.3162 24.0287 68.7677C21.8031 66.8758 20.3392 64.6248 19.7992 62.2552C19.3248 60.1729 19.5339 57.9812 20.4266 55.7427C21.1757 53.8633 22.4149 51.937 24.1192 49.9951C22.7177 50.8912 20.951 52.2992 19.306 54.4221C18.2916 55.724 17.5144 57.0103 16.7059 58.7305L16.6997 58.7399C16.4999 59.1395 16.2096 59.1551 16.0567 59.1301C15.9599 59.1145 15.6415 59.0271 15.5791 58.5838C15.011 54.5158 16.7964 51.2283 16.8745 51.091L16.9026 51.0473C19.6619 47.0511 23.3233 43.6918 27.4872 41.3378C33.8923 37.7163 39.8229 37.3729 42.3575 37.2262C43.4812 37.1606 47.5421 37.0326 52.6737 38.1128C55.7201 38.7528 58.6105 39.7082 61.2575 40.9538C64.5224 42.4867 67.444 44.4723 69.938 46.8544C71.6454 48.4841 74.5077 51.2096 76.0684 55.7802C77.6541 60.4164 77.1703 64.6966 76.4867 67.469L76.4087 67.778L76.0997 67.853C75.6533 67.9591 75.2069 68.0871 74.7762 68.2338C72.0262 69.1736 69.604 70.9406 67.5845 73.4944C65.9021 75.6174 65.1592 77.4687 65.128 77.5468C65.0406 77.7653 64.9781 77.9526 64.9188 78.1368C64.8783 78.2617 64.8346 78.3928 64.7877 78.524L64.7753 78.5552C64.6941 78.7425 64.5256 78.8705 64.332 78.8924C64.1354 78.9142 63.945 78.8268 63.8232 78.6644C63.7514 78.5677 63.5486 78.296 63.2614 77.912L62.5466 76.9505C62.1939 76.4697 61.632 75.7173 61.0296 74.9149C61.0296 74.9212 61.0327 74.9274 61.0358 74.9337C61.7007 76.938 62.4561 79.8789 62.2906 82.5076C62.1408 84.8928 61.2668 86.6536 59.6999 87.7401L58.6917 88.4394L58.8852 87.2281C58.9695 86.7067 58.8415 83.9562 58.0518 80.5626C57.3588 77.5874 55.9761 73.3789 53.3135 70.2413L53.2917 70.2132C52.4083 69.0144 50.5261 66.4293 48.7095 63.9286C47.7793 62.6517 46.8772 61.4092 46.1843 60.4601C46.5308 61.9149 47.1082 63.5758 47.8168 64.809L47.8261 64.8278C48.5378 66.1889 49.7801 67.7718 50.5854 68.5742C50.7041 68.6928 50.9569 69.0019 50.754 69.3484C50.7009 69.4358 50.498 69.7106 50.0392 69.5826C45.1012 68.4118 40.8436 64.6498 38.9146 59.9231C38.8959 60.9783 39.1143 62.0991 39.5638 63.1419C40.2162 64.6529 41.6676 66.7415 44.8889 68.0934L44.9014 68.0996C45.3509 68.3025 45.4008 68.5898 45.3602 68.7958C45.3415 68.8988 45.2385 69.2298 44.7578 69.2579C41.4335 69.5763 37.1135 68.5429 34.1139 66.7634C34.0452 67.3066 33.9703 67.9341 33.8923 68.6241C33.3772 72.973 32.6031 79.5448 31.3202 82.211L31.2922 82.261C29.9562 84.4027 27.3155 85.8575 25.6206 86.7567C25.6081 88.0055 26.1075 89.7382 26.8442 90.9245C28.4018 93.4783 30.902 94.6085 32.7249 95.1049L32.856 95.1424L32.9527 95.2391C33.1587 95.4421 33.1775 95.6356 33.2992 97.3215C33.5489 100.787 34.1295 108.904 37.2009 111.552C37.7565 112.032 38.4526 112.254 38.4526 112.254C39.4827 112.679 40.4253 112.732 43.1128 112.616C44.4675 112.557 45.148 112.532 45.6911 112.476C50.5293 111.976 56.6378 110.384 56.6378 110.384C58.982 109.772 61.9691 108.932 65.4214 107.805C66.9821 106.953 68.5428 106.101 70.1003 105.251C70.1035 105.251 70.1066 105.251 70.1128 105.251C70.4 105.186 70.581 105.351 70.631 105.404C70.6965 105.476 70.8401 105.673 70.7371 105.973C70.7246 106.013 70.709 106.051 70.6903 106.097C70.684 106.11 70.6809 106.122 70.6747 106.138C69.9755 108.267 67.1038 112.928 64.3383 115.157C58.9133 120.072 52.5706 120.786 49.34 121.096C49.752 121.963 50.395 122.981 51.1941 124.03C51.7372 124.723 52.3428 125.382 52.992 125.985L53.0045 125.997C53.0888 126.081 53.1918 126.128 53.3073 126.141H53.3167C62.5872 127.174 69.2545 123.443 75.5877 113.675C75.5253 112.963 74.8074 110 74.2736 107.802C73.8585 106.101 73.4309 104.34 73.1874 103.169C73.125 102.866 73.0657 102.635 73.0188 102.451C72.9471 102.17 72.894 101.97 72.8971 101.764V101.652L73.8741 99.56C71.0243 98.3705 68.5147 96.1789 66.8884 93.2785C65.3652 90.6592 64.6161 87.6339 64.7316 84.5307C64.8377 81.5898 65.6992 78.7269 67.2193 76.2543C68.5428 74.1032 70.3282 72.3455 72.379 71.1748C73.8991 70.3069 75.5253 69.7668 77.239 69.5576C79.2023 64.962 79.7454 60.4351 78.8059 56.4389C75.9966 44.463 60.6738 35.9774 42.3824 36.2646L39.8572 36.3052L42.2108 35.3904C45.3165 34.1822 48.5659 33.333 51.8652 32.871L52.0244 32.8491C54.0002 32.5713 56.4568 32.2247 59.522 32.5151C61.7225 32.7242 66.1331 33.461 70.965 36.0429C73.8647 37.5914 81.5714 41.7094 85.1891 50.9911C86.6593 54.7656 87.2243 58.8023 86.8716 62.992C86.6687 65.3803 86.1536 67.8155 85.3827 70.0446C87.9079 70.8532 90.174 72.4205 91.9376 74.6121C94.2505 77.4875 95.5147 81.1652 95.5022 84.974V84.9865V84.9678Z" fill="#524BE0"/>
<path d="M82.4704 70.4972C81.6401 70.4285 80.8129 70.4504 80.0014 70.5534L79.9733 70.416C77.4262 70.7438 75.0384 71.8896 73.0719 73.7285C72.148 74.5932 71.3395 75.586 70.6653 76.685L70.7839 76.7568C70.7839 76.7568 70.7715 76.7755 70.7683 76.7818L70.6497 76.71C69.9318 77.862 69.3793 79.1014 69.0016 80.3846C68.5584 81.8425 68.3336 83.3692 68.3336 84.9208C68.3336 87.971 69.2295 91.0306 70.8526 93.5282C71.093 93.8997 71.352 94.2618 71.6205 94.6021L71.7297 94.5178C71.7609 94.5584 71.7953 94.599 71.8265 94.6396C71.8608 94.6802 71.892 94.7208 71.9264 94.7614C71.9357 94.7738 71.9451 94.7863 71.9545 94.7988C71.9919 94.8457 72.0325 94.8925 72.0731 94.9393C72.1074 94.9799 72.1386 95.0174 72.173 95.0548C72.2073 95.0923 72.2385 95.1298 72.2728 95.1672L72.1667 95.2609C72.8191 96.0008 73.5432 96.6658 74.3267 97.2309C76.2276 98.5671 78.2659 99.3507 80.3822 99.563L80.3978 99.4256C82.6046 99.6473 84.8302 99.2164 86.9153 98.1237C91.5412 95.6948 94.5002 90.5342 94.4534 84.9739V84.9552C94.4784 77.4624 89.2157 71.1122 82.4704 70.4972ZM94.3161 84.9739C94.3629 90.4811 91.4319 95.5949 86.8528 97.9989C85.1548 98.8886 83.3631 99.3413 81.5246 99.3413C81.1563 99.3413 80.7849 99.3226 80.4165 99.2851C80.4165 99.2851 80.4165 99.2851 80.4134 99.2851C80.4072 99.2851 80.4041 99.2851 80.3978 99.2851C78.3346 99.076 76.3494 98.3079 74.4921 97.0061C73.7305 96.4535 73.0189 95.8072 72.379 95.0798C72.3478 95.0423 72.3134 95.0049 72.2822 94.9674C72.2479 94.9299 72.2167 94.8894 72.1823 94.8519L72.1449 94.8051C72.1199 94.7738 72.0918 94.7426 72.0637 94.7083C72.0543 94.6989 72.0481 94.6896 72.0387 94.6739C72.0075 94.6334 71.9732 94.5928 71.9389 94.5522C71.9076 94.5147 71.8764 94.4741 71.8452 94.4304C71.583 94.0964 71.3271 93.7436 71.093 93.3783C68.6458 89.6069 67.9653 84.7803 69.2732 80.4626C69.6415 79.2013 70.1878 77.9869 70.8901 76.8536C70.8932 76.8473 70.8994 76.8411 70.9025 76.8348V76.8286H70.9057C71.5674 75.7515 72.3602 74.7743 73.2654 73.9283C75.1851 72.13 77.5136 71.0123 80.0014 70.6908H80.0108C80.0108 70.6908 80.0139 70.6908 80.017 70.6908C80.5071 70.6283 81.0065 70.5971 81.4997 70.5971C81.818 70.5971 82.1427 70.6096 82.4579 70.6377C89.1315 71.2465 94.3379 77.5342 94.3129 84.9552V84.977L94.3161 84.9739Z" fill="#524BE0"/>
<path d="M80.3978 99.4256C78.3408 99.2196 76.2994 98.4453 74.411 97.1185C73.6338 96.5565 72.919 95.9009 72.276 95.1703L72.1699 95.2609C72.8222 96.0008 73.5464 96.6658 74.3298 97.2309C76.2308 98.5671 78.269 99.3507 80.3853 99.563L80.4009 99.4256H80.3978ZM73.1718 73.8284C75.1289 71.9989 77.4918 70.875 79.9952 70.5534C79.9952 70.5534 80.0014 70.5534 80.0045 70.5534L79.9764 70.416C77.4294 70.7438 75.0415 71.8896 73.0751 73.7285C72.1511 74.5932 71.3427 75.586 70.6685 76.685L70.7871 76.7568C71.4488 75.6766 72.2479 74.69 73.1687 73.8284H73.1718ZM69.1359 80.4251C69.5136 79.1358 70.0692 77.9057 70.7683 76.7818L70.6497 76.71C69.9318 77.862 69.3793 79.1014 69.0016 80.3846C68.5584 81.8425 68.3337 83.3692 68.3337 84.9208C68.3337 87.971 69.2295 91.0306 70.8526 93.5282C71.093 93.8997 71.352 94.2618 71.6205 94.6021L71.7297 94.5178C71.4613 94.1775 71.2085 93.8248 70.9681 93.4532C68.496 89.6475 67.8124 84.7803 69.1327 80.4251H69.1359ZM71.2959 95.4107H70.9244L71.1179 95.6418C71.1179 95.6418 71.1273 95.6543 71.1335 95.6605L71.3396 95.47L71.299 95.4076L71.2959 95.4107ZM71.2241 95.5512C71.2241 95.5512 71.2303 95.5606 71.2334 95.5637C71.2303 95.5575 71.2272 95.5543 71.2209 95.5512H71.2241ZM70.9275 95.1828C70.9275 95.1828 70.9119 95.161 70.9026 95.1516C70.9338 95.1922 70.965 95.2328 70.9993 95.2734L71.1086 95.1859L71.0118 95.0642L70.7933 95.239C70.7933 95.239 70.7996 95.2484 70.8058 95.2546C70.8058 95.2578 70.812 95.2609 70.812 95.264C70.812 95.264 70.812 95.2671 70.8152 95.2702L70.887 95.3608L70.9962 95.2734C70.9712 95.2421 70.9494 95.214 70.9244 95.1828H70.9275ZM69.6072 105.595L69.7414 105.635L69.8756 105.676L69.6103 105.588L69.6072 105.595ZM64.5318 78.1211L64.6411 78.0368L64.7503 77.9525L64.5256 78.118V78.1242L64.5318 78.1211Z" fill="#524BE0"/>
<path d="M91.9344 74.5933C90.1709 72.4016 87.9047 70.8344 85.3795 70.0258C86.1505 67.7967 86.6655 65.3615 86.8684 62.9732C87.2211 58.7866 86.6562 54.7499 85.186 50.9722C81.5714 41.6905 73.8647 37.5726 70.9619 36.0241C66.1299 33.4422 61.7163 32.7054 59.5189 32.4963C56.4537 32.2059 53.9971 32.5525 52.0213 32.8303L51.8621 32.8522C48.5628 33.3173 45.3134 34.1665 42.2076 35.3716L39.8541 36.2864L42.3793 36.2458C60.6706 35.9586 75.9904 44.4441 78.8028 56.4201C79.7392 60.4163 79.1961 64.9432 77.2358 69.5388C75.5253 69.7448 73.896 70.288 72.3758 71.156C70.3251 72.3267 68.5428 74.0844 67.2162 76.2355C65.6961 78.7081 64.8346 81.5678 64.7284 84.5119C64.6161 87.6151 65.3621 90.6372 66.8853 93.2597C68.5084 96.1601 71.0212 98.3486 73.871 99.5412L72.8971 101.633V101.745C72.8909 101.951 72.9439 102.154 73.0157 102.432C73.0625 102.616 73.1219 102.85 73.1843 103.15C73.4309 104.318 73.8585 106.079 74.2705 107.783C74.8043 109.981 75.5253 112.944 75.5846 113.656C69.2513 123.428 62.5809 127.158 53.3135 126.125H53.3042C53.1887 126.112 53.0857 126.063 53.0014 125.981L52.9889 125.969C52.3397 125.366 51.7341 124.708 51.191 124.015C50.3919 122.969 49.7489 121.951 49.3369 121.08C52.5675 120.771 58.9071 120.056 64.3352 115.142C67.1007 112.916 69.9724 108.252 70.6716 106.122C70.6778 106.11 70.6841 106.094 70.6872 106.082C70.7059 106.035 70.7215 105.997 70.734 105.957C70.837 105.654 70.6934 105.457 70.6279 105.389C70.5779 105.336 70.3969 105.17 70.1097 105.236C70.1097 105.236 70.1035 105.236 70.0972 105.236C68.5365 106.088 66.9758 106.94 65.4183 107.789C61.9629 108.917 58.9757 109.759 56.6347 110.368C56.6347 110.368 50.5261 111.96 45.688 112.46C45.1449 112.516 44.4644 112.541 43.1097 112.6C40.4222 112.716 39.4796 112.663 38.4495 112.238C38.4495 112.238 37.7534 112.017 37.1978 111.536C34.1264 108.888 33.5458 100.771 33.2961 97.3058C33.1744 95.6199 33.1556 95.4264 32.9496 95.2234L32.8528 95.1267L32.7218 95.0892C30.8989 94.5897 28.3986 93.4595 26.8411 90.9089C26.1075 89.7225 25.605 87.9898 25.6175 86.741C27.3124 85.8419 29.9531 84.387 31.289 82.2453L31.3171 82.1954C32.5969 79.5292 33.3741 72.9574 33.8892 68.6084C33.9703 67.9185 34.0452 67.2909 34.1108 66.7477C37.1073 68.5272 41.4304 69.5606 44.7547 69.2422C45.2385 69.2141 45.3384 68.8832 45.3571 68.7801C45.3977 68.5741 45.3478 68.2868 44.8983 68.0839L44.8858 68.0777C41.6645 66.7227 40.2131 64.6372 39.5607 63.1262C39.1112 62.0834 38.8927 60.9626 38.9115 59.9074C40.8405 64.6341 45.098 68.3961 50.0361 69.5669C50.4949 69.6949 50.6978 69.4201 50.7509 69.3327C50.9569 68.9862 50.7009 68.6771 50.5823 68.5585C49.7739 67.7561 48.5347 66.1733 47.823 64.8121L47.8137 64.7933C47.1051 63.5601 46.5245 61.8992 46.1812 60.4444C46.8741 61.3935 47.7762 62.636 48.7064 63.9129C50.5261 66.4137 52.4052 68.9987 53.2886 70.1975L53.3104 70.2256C55.973 73.3663 57.3557 77.5717 58.0487 80.5469C58.8384 83.9437 58.9664 86.691 58.8821 87.2124L58.6886 88.4237L59.6968 87.7244C61.2637 86.638 62.1346 84.8771 62.2875 82.4919C62.453 79.8632 61.6976 76.9223 61.0327 74.918C61.0327 74.9117 61.0296 74.9055 61.0265 74.8992C61.6258 75.7016 62.1908 76.454 62.5435 76.9348L63.2583 77.8964C63.5423 78.2804 63.7452 78.552 63.8201 78.6488C63.9419 78.8142 64.1323 78.8985 64.3289 78.8767C64.5256 78.8548 64.691 78.7299 64.7721 78.5395L64.7846 78.5083C64.8315 78.3771 64.8752 78.246 64.9157 78.1211C64.975 77.9369 65.0375 77.7465 65.1249 77.5311C65.1561 77.453 65.899 75.6017 67.5814 73.4787C69.604 70.9281 72.0231 69.1579 74.7731 68.2182C75.2038 68.0714 75.6502 67.9434 76.0965 67.8373L76.4056 67.7624L76.4836 67.4533C77.1672 64.6809 77.651 60.4038 76.0653 55.7645C74.5046 51.1939 71.6423 48.4684 69.9349 46.8387C67.4378 44.4566 64.5162 42.4742 61.2543 40.9381C58.6043 39.6925 55.717 38.7371 52.6705 38.0971C47.5359 37.0169 43.4749 37.1449 42.3544 37.2105C39.8229 37.3572 33.8923 37.7006 27.4841 41.3222C23.3201 43.6761 19.6588 47.0354 16.8994 51.0316L16.8714 51.0753C16.7964 51.2126 15.0079 54.5001 15.576 58.5681C15.6384 59.0114 15.9568 59.0988 16.0536 59.1144C16.2096 59.1394 16.4999 59.1238 16.6966 58.7242L16.7028 58.7148C17.5112 56.9946 18.2916 55.7083 19.3029 54.4064C20.9479 52.2866 22.7146 50.8786 24.1161 49.9795C22.4118 51.9213 21.1726 53.8476 20.4235 55.7271C19.5308 57.9655 19.3216 60.1572 19.7961 62.2395C20.3392 64.6091 21.8 66.8632 24.0256 68.752C25.8485 70.3005 28.1677 71.5962 30.5493 72.3954L31.0737 72.5702L31.2204 72.0395C31.4763 71.1154 31.9664 69.1111 32.3628 67.497C32.5251 66.8414 32.6687 66.2513 32.7811 65.7924C32.9028 65.8954 33.0245 65.9953 33.1369 66.089C33.0526 66.7383 32.9559 67.5532 32.8466 68.4773C32.3441 72.7419 31.5824 79.1826 30.3838 81.7083C29.1353 83.6877 26.4946 85.0832 24.9183 85.9199L24.6093 86.0822L24.5874 86.3695C24.4688 87.8493 25.04 89.9847 25.9483 91.449C27.5996 94.1526 30.1716 95.417 32.1443 96.0039C32.1786 96.3037 32.2192 96.8438 32.2567 97.3714C32.3846 99.1634 32.6 102.164 33.19 105.045C33.9172 108.595 35.0378 111.043 36.5174 112.32C37.2665 112.966 38.1717 113.237 38.1717 113.237C39.0457 113.568 39.7605 113.618 41.8581 113.64C42.86 113.649 43.9338 113.653 45.0668 113.64C45.2885 114.649 45.61 115.791 46.0844 117.018C46.7742 118.804 47.5983 120.271 48.3505 121.411C48.8999 122.6 49.7271 123.793 50.3732 124.639C50.9538 125.379 51.5937 126.075 52.2804 126.715C52.5332 126.962 52.8641 127.118 53.2105 127.149C54.2281 127.261 55.2176 127.321 56.1758 127.321C59.7374 127.321 62.918 126.537 65.8303 124.954C69.6821 122.859 73.1905 119.3 76.5554 114.077L76.624 113.971L76.6365 113.843C76.6834 113.328 76.2432 111.43 75.2912 107.521C74.8792 105.826 74.4547 104.074 74.2112 102.922C74.1457 102.598 74.0801 102.354 74.0302 102.154C73.999 102.029 73.9677 101.911 73.9521 101.83L74.8542 99.8908C76.1309 100.309 77.4606 100.534 78.7965 100.534C79.2679 100.534 79.7423 100.506 80.2168 100.45C80.6506 100.497 81.0845 100.518 81.5184 100.518C83.5161 100.518 85.5106 100.028 87.4022 99.0354C92.3714 96.4285 95.549 90.8995 95.4991 84.9521V84.9396C95.5116 81.1307 94.2443 77.453 91.9344 74.5777V74.5933ZM69.6072 105.592L69.8725 105.679L69.7383 105.638L69.6041 105.598L69.6072 105.592ZM64.7534 77.9494L64.6442 78.0337L64.5349 78.118V78.1118L64.7565 77.9463L64.7534 77.9494ZM79.683 56.2172C78.3002 50.3166 73.8741 44.9718 67.2193 41.1598C63.8857 39.2491 60.1026 37.7787 55.973 36.789C52.4645 35.9461 48.7719 35.4684 44.9638 35.3623C47.2549 34.6286 49.6085 34.0885 51.9869 33.7544L52.1461 33.7326C54.0752 33.461 56.4724 33.1207 59.4315 33.4016C61.5634 33.6046 65.8397 34.3195 70.5342 36.8265C73.356 38.3344 80.8442 42.3368 84.3401 51.3063C87.371 59.0894 85.751 66.2076 84.5056 69.7823C83.6815 69.5356 82.5703 69.289 81.2437 69.2391C80.0576 69.1922 79.04 69.3109 78.2503 69.4638C80.1387 64.8402 80.635 60.2789 79.683 56.2203V56.2172ZM70.8183 95.2703C70.8183 95.2703 70.8183 95.2703 70.8151 95.264C70.8151 95.264 70.8089 95.2578 70.8089 95.2547C70.8027 95.2453 70.7964 95.2391 70.7964 95.2391L71.0149 95.0642L71.1117 95.186L71.0024 95.2734L70.8932 95.3608L70.8214 95.2703H70.8183ZM71.1335 95.6605C71.1335 95.6605 71.121 95.648 71.1179 95.6418L70.9244 95.4108H71.2958L71.3364 95.4701L71.1304 95.6605H71.1335ZM94.4565 84.9739C94.5033 90.5342 91.5443 95.698 86.9184 98.1238C84.8333 99.2196 82.6077 99.6473 80.4009 99.4257L80.3853 99.563C78.269 99.3507 76.2339 98.5671 74.3298 97.2309C73.5495 96.6658 72.8222 96.0008 72.1698 95.2609L72.276 95.1704C72.2416 95.1329 72.2104 95.0954 72.1761 95.058C72.1417 95.0205 72.1105 94.9799 72.0762 94.9425C72.0356 94.8956 71.9982 94.8488 71.9576 94.802C71.9482 94.7895 71.9389 94.777 71.9295 94.7645C71.8951 94.7239 71.8639 94.6833 71.8296 94.6428C71.7953 94.6022 71.764 94.5616 71.7328 94.521L71.6236 94.6053C71.3551 94.265 71.0961 93.9028 70.8557 93.5313C69.2326 91.0306 68.3368 87.9742 68.3368 84.924C68.3368 83.3723 68.5615 81.8457 69.0047 80.3877C69.3824 79.1015 69.9349 77.8651 70.6528 76.7131L70.7715 76.7849C70.7715 76.7849 70.7808 76.7662 70.7871 76.76L70.6684 76.6881C71.3427 75.5892 72.1511 74.5964 73.075 73.7316C75.0415 71.8928 77.4294 70.747 79.9764 70.4192L80.0045 70.5565C80.8161 70.4535 81.6401 70.4317 82.4735 70.5003C89.2188 71.1154 94.4815 77.4624 94.4565 84.9583V84.9771V84.9739Z" fill="#524BE0"/>
<path d="M71.3395 95.4734L71.1335 95.6638C71.1335 95.6638 71.121 95.6513 71.1179 95.6451L70.9244 95.4141H71.2958L71.3364 95.4734H71.3395Z" fill="#524BE0"/>
<path d="M71.2402 95.5705C71.2402 95.5705 71.2305 95.5561 71.2209 95.5513C71.2209 95.5513 71.2305 95.5657 71.2354 95.5705H71.2402Z" fill="#524BE0"/>
<path d="M53.9097 78.5833V78.5552C53.9097 76.8287 53.916 74.8744 53.9097 73.6381V73.5038L53.7755 73.4976C53.6756 73.4944 53.5789 73.4882 53.479 73.482C53.3323 73.4726 53.1824 73.4632 53.0357 73.4601C52.9327 73.457 52.8297 73.4539 52.7267 73.4507H52.5831V73.5912C52.5831 74.7994 52.5831 76.707 52.5831 78.5552V78.5927C52.5831 80.9279 52.5769 83.3443 52.5831 84.409C52.5582 84.4433 52.5332 84.4776 52.5145 84.5026C52.4957 84.5276 52.477 84.5494 52.4645 84.5682C51.0724 86.4101 48.6689 87.3436 45.3166 87.3436C44.5768 87.3436 43.7902 87.2968 42.9818 87.2031C40.1881 86.8816 37.7441 86.1167 36.7296 85.767C36.8701 84.0718 37.0699 81.7272 37.2634 79.4575L37.2696 79.37C37.4569 77.1846 37.6504 74.9212 37.794 73.1947L37.8065 73.0605L37.6723 73.0449C37.2883 73.0043 36.9512 72.9606 36.6391 72.9169L36.4924 72.895L36.4799 73.0418C36.3675 74.378 36.2271 76.042 36.0835 77.7466C36.0679 78.0963 36.0398 78.4428 35.9961 78.7894C35.9805 78.9642 35.9649 79.139 35.9524 79.3107L35.9399 79.4418C35.7433 81.749 35.5404 84.1342 35.3999 85.8107V85.8263C35.3937 85.895 35.3905 85.9481 35.3843 85.998C35.3718 86.1011 35.3593 86.2166 35.3874 86.3571L35.4623 86.7099L35.7994 86.8379C35.9337 86.8878 39.0925 88.0867 42.8351 88.5175C43.7122 88.6174 44.5612 88.6705 45.3571 88.6705C46.5401 88.6705 47.6389 88.5581 48.6221 88.3364C50.7478 87.8556 52.399 86.8566 53.5289 85.3643L53.5726 85.305C53.6881 85.152 53.8223 84.9771 53.8848 84.7742L53.916 84.6774V84.5744C53.9066 83.6222 53.9097 81.0622 53.916 78.5833H53.9097Z" fill="#524BE0"/>
<path d="M53.7724 73.638C53.5258 73.6255 53.2792 73.6068 53.0326 73.6005C52.9296 73.5974 52.8297 73.5943 52.7267 73.5912C52.7267 74.8025 52.7267 76.7038 52.7267 78.5552C52.7267 80.9435 52.7205 83.4067 52.7267 84.4526C52.6986 84.4963 52.6549 84.5494 52.6268 84.5869C52.6081 84.6118 52.5925 84.6337 52.5769 84.6524C50.3919 87.5403 46.1468 87.7089 42.9661 87.3405C40.0445 87.0033 37.5006 86.1822 36.5798 85.8606C36.7203 84.1685 36.9263 81.7677 37.1229 79.4418C37.3133 77.2189 37.5068 74.9305 37.6535 73.1822C37.3071 73.1447 36.9606 73.1042 36.6141 73.0542C36.4674 74.8088 36.2708 77.1128 36.0804 79.3544C35.8806 81.699 35.6746 84.1217 35.5341 85.82V85.8357C35.5279 85.9075 35.5216 85.9637 35.5185 86.0136C35.5092 86.1104 35.4967 86.2103 35.5185 86.3289L35.5778 86.6068L35.8431 86.7098C35.9742 86.7598 39.1206 87.9524 42.8444 88.3832C43.7215 88.4831 44.5549 88.5362 45.3509 88.5362C46.5277 88.5362 47.6076 88.4269 48.5878 88.2053C50.6822 87.7307 52.3053 86.7504 53.4134 85.2862C53.429 85.2675 53.4446 85.2456 53.4602 85.2269C53.5695 85.0833 53.6944 84.9178 53.7505 84.7367L53.7755 84.6587V84.5775C53.7661 83.6222 53.7724 81.0496 53.7755 78.5614C53.7755 76.735 53.7786 74.8587 53.7755 73.6443L53.7724 73.638Z" fill="#524BE0"/>
<path d="M50.3982 96.2945C50.3576 96.2945 50.3139 96.2945 50.2733 96.2851C49.724 96.2196 49.4337 95.7887 49.39 95.386C49.3463 94.9864 49.5398 94.4993 50.0673 94.3214C50.1672 94.2839 50.2733 94.2683 50.3826 94.2683C50.651 94.2683 50.9194 94.3838 51.1161 94.5836C51.3034 94.7741 51.4064 95.0207 51.4001 95.2798V95.2923C51.4033 95.5483 51.3003 95.7981 51.1099 95.9917C50.9194 96.1852 50.6573 96.2976 50.3982 96.2976V96.2945Z" fill="#524BE0"/>
<path d="M51.2628 95.2891C51.269 95.7918 50.7915 96.2164 50.292 96.1477C49.3712 96.0384 49.237 94.7521 50.1141 94.4555C50.6572 94.2589 51.2722 94.6991 51.2628 95.2766V95.2891Z" fill="#524BE0"/>
<path d="M27.0502 83.3724C26.9129 83.2912 26.7037 83.1694 26.5008 83.0508L26.4759 83.0352C26.2792 82.9197 26.0794 82.801 25.9671 82.7355L25.9234 82.7074C25.6362 82.5419 25.555 82.3078 25.5394 82.1423H25.5238L25.5394 81.9862C25.5644 81.7677 25.6924 80.3253 25.8141 78.9423C26.1419 75.2552 26.3448 72.9824 26.3916 72.7139L26.5164 72.0083L27.2094 72.1894C27.5808 72.2862 28.2238 72.4735 28.845 72.6546L28.9043 72.6702C29.3756 72.8075 29.8189 72.9355 30.1372 73.023L30.2715 73.0604L29.9187 74.3373L29.7845 74.2998C29.4693 74.2124 29.0385 74.0875 28.5828 73.9564L28.3456 73.8877C28.0959 73.8159 27.8493 73.7441 27.6183 73.6786C27.5059 74.8368 27.3124 77.0534 27.1345 79.0609C27.0221 80.3347 26.9409 81.24 26.8941 81.7427C26.9253 81.7614 27.175 81.9082 27.175 81.9082C27.3748 82.0268 27.5746 82.1454 27.7088 82.2235L27.8305 82.2922L27.1688 83.4411L27.0471 83.3724H27.0502Z" fill="#524BE0"/>
<path d="M30.0998 73.1603L29.822 74.1687C29.4849 74.075 29.0136 73.9408 28.5173 73.7941C28.1645 73.691 27.8056 73.588 27.4966 73.5006C27.3842 74.6464 27.1563 77.2158 26.9971 79.0484C26.8879 80.2784 26.7974 81.3118 26.7506 81.8176C26.8567 81.88 26.9815 81.955 27.1095 82.0299C27.3093 82.1485 27.509 82.2672 27.6464 82.3452L27.1251 83.2506C26.9878 83.1725 26.7818 83.0477 26.5758 82.929C26.3697 82.8073 26.1575 82.6824 26.0389 82.6137L26.0014 82.5887C25.6862 82.4076 25.6643 82.1454 25.683 82.0018C25.708 81.7895 25.8235 80.4751 25.9577 78.9547C26.2667 75.4831 26.4852 73.0042 26.5352 72.7388L26.6351 72.1831L27.1813 72.3267C27.5496 72.4235 28.1926 72.6108 28.8138 72.7888C29.307 72.9324 29.7752 73.0666 30.106 73.1572L30.0998 73.1603Z" fill="#524BE0"/>
<path d="M69.8687 105.675L69.7395 105.635L69.6072 105.595V105.592L69.8687 105.675Z" fill="#524BE0"/>
<path d="M64.7502 77.9495L64.6425 78.0356L64.5318 78.1187L64.5287 78.1126L64.7502 77.9495Z" fill="#524BE0"/>
<path d="M96.5853 81.7085C96.4854 81.696 96.1483 81.6148 96.0515 81.1809V81.1622C95.9985 80.8999 95.9236 80.4972 95.8174 80.0601V80.0445C95.3492 77.7966 93.6949 74.2563 91.5474 72.1177L91.538 72.1084C90.8295 71.3778 90.1428 70.7659 89.4405 70.2383C89.3218 70.1478 89.1221 70.0541 88.8911 69.9479H88.8848C88.3573 69.6982 87.6425 69.361 86.9964 68.671C86.934 68.6024 86.8653 68.5274 86.7966 68.4463L86.5875 68.1965L86.6999 67.8937C87.7206 65.1401 88.2294 62.2866 88.2106 59.4081C88.1857 55.5243 87.1494 49.6518 82.3393 43.7169C79.6549 40.4076 76.1153 37.7383 72.1012 35.9962L70.4655 35.2875L72.2135 34.9379C73.1718 34.7474 74.155 34.6506 75.1414 34.6506C77.7009 34.6506 80.2605 35.2844 82.7451 36.5332C85.3483 37.8413 87.8517 39.8706 89.4467 41.9686C90.9356 42.824 93.3547 44.7565 95.7144 47.6413C97.6185 49.9672 100.119 53.726 101.221 58.4184C101.349 58.7337 102.538 60.7068 104.404 62.4614C105.859 63.8288 108.163 65.4554 110.869 65.4554C111.197 65.4554 111.524 65.4304 111.849 65.3836H111.88C111.914 65.3773 111.939 65.3773 111.964 65.3773C112.311 65.3773 112.461 65.5647 112.526 65.7239C112.617 65.9424 112.557 66.1953 112.38 66.3576C111.056 67.5846 108.546 69.0207 105.843 69.0207C105.697 69.0207 105.544 69.0176 105.394 69.0082C104.086 68.9302 102.853 68.5212 101.72 67.7875C102.079 68.8428 102.272 69.9198 102.279 70.9282C102.335 72.6797 101.732 74.8276 100.587 76.9724C99.5912 78.8363 98.2521 80.5659 97.0067 81.5961L96.8163 81.7522L96.5728 81.7179L96.5853 81.7085Z" fill="#524BE0"/>
<path d="M112.298 66.2484C110.959 67.491 108.509 68.874 105.856 68.874C105.709 68.874 105.562 68.8709 105.416 68.8615C103.989 68.7772 102.666 68.2933 101.455 67.4192C101.901 68.5774 102.144 69.7825 102.151 70.9189C102.204 72.6485 101.611 74.7715 100.475 76.8944C99.4882 78.7427 98.1616 80.4566 96.9286 81.4744L96.7851 81.593L96.6009 81.5681C96.501 81.5556 96.2576 81.4838 96.1826 81.1466V81.131C96.1327 80.8687 96.0578 80.4691 95.9485 80.0227V80.0102C95.4772 77.7436 93.8073 74.1721 91.641 72.0148L91.6348 72.0085C90.92 71.2717 90.2302 70.6536 89.5185 70.1228C89.3874 70.0229 89.1782 69.9261 88.9348 69.8137C88.4198 69.5734 87.7174 69.2455 87.09 68.5712C87.0245 68.4994 86.9589 68.4276 86.8965 68.3526L86.7404 68.1653L86.8247 67.9374C87.8517 65.1682 88.3636 62.296 88.3448 59.4019C88.3199 55.4963 87.2773 49.5894 82.4423 43.6233C79.7454 40.2984 76.187 37.6135 72.1511 35.862L70.9244 35.3313L72.2354 35.069C75.6502 34.3853 79.2585 34.9317 82.6795 36.6488C85.2796 37.9538 87.7674 39.9737 89.3499 42.0654C92.3745 43.7919 99.0918 49.961 101.083 58.4497V58.4559C101.205 58.7681 102.391 60.76 104.308 62.5551C106.018 64.1598 108.715 65.9768 111.871 65.5148H111.899C112.152 65.4929 112.32 65.5772 112.398 65.7676C112.467 65.9331 112.423 66.1235 112.289 66.2453L112.298 66.2484Z" fill="#524BE0"/>
<path d="M64.8065 80.9748C64.5505 80.8718 64.3227 80.725 64.1135 80.5814C63.7421 80.3254 63.3707 80.0194 62.9461 79.6198C62.8962 79.573 62.8431 79.5199 62.7838 79.4637C62.6621 79.3451 62.5216 79.2077 62.4062 79.1203L62.0878 78.8768L62.506 78.8674C62.8088 78.8674 63.0929 79.0173 63.2989 79.1297C64.0074 79.5449 64.6036 80.1256 64.9813 80.7719L65.1873 81.1246L64.8065 80.9685V80.9748Z" fill="#524BE0"/>
<path d="M62.4873 79.011C62.7526 79.0047 63.0055 79.1358 63.2302 79.2576C63.8857 79.6416 64.4725 80.188 64.8564 80.8467C64.613 80.7468 64.4007 80.6094 64.1885 80.4689C63.7764 80.1848 63.4019 79.8633 63.0398 79.523C62.8744 79.37 62.6683 79.1514 62.4873 79.0141V79.011Z" fill="#524BE0"/>
<path d="M64.2321 81.9177C64.0636 81.849 63.9169 81.7522 63.7795 81.6616C63.5392 81.4962 63.2988 81.2995 63.0242 81.0404C62.9929 81.0092 62.9586 80.9748 62.9211 80.9405C62.8431 80.8655 62.7557 80.7781 62.6839 80.725L62.3655 80.4815L62.7776 80.4722C62.9836 80.4722 63.1709 80.5721 63.3082 80.647C63.7764 80.9217 64.1541 81.2901 64.4038 81.7179L64.6098 82.0706L64.229 81.9145L64.2321 81.9177Z" fill="#524BE0"/>
<path d="M62.7651 80.6126C62.9336 80.6095 63.0959 80.6938 63.2426 80.7687C63.6609 81.0154 64.0386 81.365 64.2852 81.7865C64.1291 81.7241 63.9918 81.6367 63.8576 81.543C63.5922 81.3619 63.3519 81.1559 63.1209 80.9373C63.0148 80.8405 62.8837 80.7 62.7682 80.6126H62.7651Z" fill="#524BE0"/>
<path d="M81.5184 97.1373C80.9503 97.1373 80.376 97.0874 79.8079 96.9875C77.2327 96.5504 74.8854 95.0518 73.1968 92.7696C71.5924 90.5998 70.709 87.9368 70.7153 85.2706C70.6653 81.6179 72.0856 78.1805 74.6108 75.839C76.5366 74.0533 78.9776 73.0698 81.484 73.0698C81.7775 73.0698 82.074 73.0823 82.3674 73.1104C85.1704 73.3851 87.7206 74.8088 89.5497 77.1222C91.3039 79.3388 92.2653 82.1704 92.2591 85.0958V85.1051C92.3184 88.7641 90.7202 92.3482 87.9797 94.6834C86.0975 96.2881 83.8657 97.1373 81.5184 97.1373ZM81.484 74.1188C79.2429 74.1188 77.0548 75.0023 75.3224 76.607C73.0157 78.7456 71.7172 81.902 71.7609 85.2643C71.7516 89.8318 74.8261 95.0768 79.9858 95.9541C80.4914 96.0446 81.0065 96.0883 81.5121 96.0883C83.6097 96.0883 85.6105 95.3265 87.2992 93.8873C89.8057 91.7487 91.2665 88.4706 91.2103 85.1176V85.0958C91.229 79.3606 87.3835 74.6558 82.2675 74.1532C82.0084 74.1313 81.7431 74.1188 81.4809 74.1188H81.484Z" fill="#524BE0"/>
<path d="M81.5184 96.9969C80.9596 96.9969 80.3978 96.9469 79.8328 96.847C77.2951 96.4162 74.976 94.9363 73.3091 92.6854C71.7203 90.5406 70.8495 87.9056 70.8557 85.2706C70.8089 81.6553 72.2104 78.2555 74.7075 75.9421C76.8488 73.9565 79.5675 73.0012 82.358 73.2509C85.1205 73.5225 87.6363 74.9274 89.4436 77.2096C91.1791 79.4013 92.1311 82.2017 92.1217 85.0958V85.1052C92.181 88.7267 90.5985 92.267 87.8922 94.5773C86.0319 96.1633 83.8157 96.9969 81.5215 96.9969H81.5184ZM81.484 73.9784C79.1992 73.9784 77.0017 74.8588 75.2257 76.5041C72.8877 78.6707 71.5736 81.8645 71.6205 85.2675C71.6111 89.8943 74.7294 95.2048 79.9639 96.0946C82.6171 96.5629 85.2547 95.8199 87.3928 93.9966C89.9305 91.8331 91.4101 88.5144 91.3539 85.1176V85.0958C91.3726 79.2857 87.474 74.5247 82.2862 74.0158C82.0178 73.9908 81.7525 73.9784 81.4872 73.9784H81.484Z" fill="#524BE0"/>
<path d="M76.0216 90.3157L75.2163 89.5446L80.0108 84.5557L74.8293 80.828L75.4816 79.9226L81.7088 84.4027L76.0216 90.3157Z" fill="#524BE0"/>
<path d="M87.6091 88.1153L81.1317 89.1995L81.3157 90.2987L87.793 89.2146L87.6091 88.1153Z" fill="#524BE0"/>
<path d="M14.1558 43.751L-0.00909424 26.9328L5.959 21.9064L19.6151 31.0195L13.0071 15.9683L18.9721 10.9419L33.1369 27.7632L29.2601 31.0288L18.1293 17.8103L25.2585 34.4006L21.9842 37.1573L6.87356 27.2887L18.0044 40.5072L14.1526 43.751H14.1558Z" fill="#524BE0"/>
<path d="M37.2197 27.2231L32.3878 15.6842L29.5348 16.8799L28.0584 13.3583L35.556 10.2176L41.8643 25.2781L37.2197 27.2231ZM32.2036 8.69404C31.4545 9.00624 30.6991 9.00937 29.9375 8.69404C29.1759 8.38184 28.639 7.8511 28.3269 7.10182C28.0053 6.33381 28.0022 5.57205 28.3175 4.82277C28.6327 4.07349 29.1665 3.53963 29.9156 3.2243C30.6835 2.90274 31.442 2.89337 32.188 3.19933C32.934 3.50528 33.4678 4.04227 33.7924 4.8134C34.1077 5.56268 34.1108 6.31508 33.8111 7.07373C33.5084 7.83237 32.9746 8.36936 32.2036 8.69404Z" fill="#524BE0"/>
<path d="M49.8114 23.6704C48.4255 23.8889 47.1395 23.7359 45.9564 23.2114C44.7734 22.6869 43.7777 21.8284 42.9693 20.6327C42.1577 19.4401 41.6146 17.9633 41.3399 16.2057C41.0621 14.4511 41.1308 12.8995 41.5397 11.557C41.9486 10.2145 42.6384 9.12185 43.606 8.28203C44.5737 7.44221 45.7504 6.91148 47.1363 6.69294C48.0259 6.55245 48.9717 6.6305 49.9737 6.93021C50.9756 7.22992 51.8059 7.77939 52.4677 8.58799L51.2378 0.782993L56.179 0.00561523L58.6074 15.4189C58.7354 16.2213 58.9227 17.1704 59.1724 18.2631C59.4221 19.3558 59.7499 20.4828 60.1556 21.6411L55.4423 22.3841L54.4497 20.308C53.9253 21.3476 53.2418 22.1312 52.4052 22.662C51.5656 23.1927 50.7041 23.5299 49.8145 23.6704H49.8114ZM50.8008 19.5837C51.7529 19.4338 52.527 18.9437 53.12 18.1194C53.71 17.2921 53.8754 16.0464 53.6132 14.3762C53.3541 12.7278 52.8141 11.5976 51.9963 10.9826C51.1785 10.3675 50.2921 10.1365 49.3369 10.2864C48.363 10.4393 47.5827 10.9638 47.0021 11.8536C46.4215 12.7465 46.2467 13.9297 46.4777 15.4033C46.7118 16.8987 47.2487 18.0102 48.0852 18.7345C48.9218 19.4588 49.827 19.7429 50.804 19.5899L50.8008 19.5837Z" fill="#524BE0"/>
<path d="M68.9923 23.3208C67.494 23.096 66.1424 22.5808 64.9313 21.7785C63.7202 20.9761 62.8088 19.8803 62.197 18.4879C61.5852 17.0986 61.4229 15.4377 61.7132 13.5052C62.0066 11.5508 62.6465 10.0117 63.6391 8.88465C64.6286 7.7576 65.8209 6.99271 67.2131 6.58998C68.6052 6.18724 70.0473 6.09982 71.5456 6.32461C73.022 6.54627 74.3642 7.05203 75.5784 7.84502C76.7895 8.63801 77.7041 9.71822 78.3221 11.0857C78.937 12.4531 79.0993 14.114 78.8059 16.0684C78.5156 18.0009 77.8757 19.54 76.88 20.6889C75.8874 21.8378 74.695 22.6183 73.2998 23.0304C71.9076 23.4425 70.4718 23.5393 68.9954 23.3176L68.9923 23.3208ZM69.5666 19.4807C70.5654 19.6306 71.4488 19.3964 72.2167 18.7814C72.9845 18.1632 73.4964 17.0081 73.7524 15.316C74.0083 13.602 73.8491 12.3501 73.2654 11.5633C72.6817 10.7766 71.917 10.3114 70.9619 10.1678C69.9849 10.0211 69.1046 10.2396 68.318 10.8203C67.5315 11.401 67.0102 12.5499 66.7542 14.2638C66.5014 15.956 66.6575 17.211 67.2224 18.029C67.7874 18.8469 68.5678 19.3308 69.5666 19.4807Z" fill="#524BE0"/>
<path d="M80.5102 25.3344L84.5992 9.00635L88.9535 11.3322L85.9227 22.253L92.9895 13.4895L97.1722 15.7218L93.8198 26.4708L101.208 17.8759L105.594 20.2174L94.3036 32.6992L89.4842 30.1235L92.9146 18.6689L85.3327 27.9069L80.5133 25.3313L80.5102 25.3344Z" fill="#524BE0"/>
<path d="M96.9849 34.8158L99.8753 32.0747L111.762 32.4618L106.259 26.6549L109.149 23.9138L119.069 34.3788L116.178 37.1199L104.314 36.7577L110.429 43.2078L107.538 45.9489L96.9849 34.8158Z" fill="#524BE0"/>
<path d="M112.464 55.1307L121.56 51.3281L124.029 57.2381L122.927 57.7001L120.991 53.0702L118.229 54.2253L120.164 58.8553L119.062 59.3173L117.127 54.6874L113.001 56.4139L112.467 55.1338L112.464 55.1307Z" fill="#524BE0"/>
<path d="M115.644 64.1938C115.492 63.6443 115.485 63.1698 115.626 62.7733C115.766 62.3768 116.022 62.049 116.394 61.7867C116.765 61.5245 117.218 61.3216 117.748 61.1748L122.256 59.926L122.586 61.1218L118.363 62.2925C117.842 62.4361 117.455 62.6078 117.205 62.8108C116.955 63.0137 116.806 63.2416 116.759 63.4945C116.712 63.7474 116.728 64.0221 116.809 64.3156C116.965 64.8744 117.28 65.2584 117.764 65.4676C118.245 65.6767 118.86 65.6767 119.609 65.4676L123.492 64.3936L123.823 65.5893L116.753 67.5437L116.506 66.6477L117.446 66.067C117.049 65.964 116.69 65.7704 116.369 65.4925C116.047 65.2147 115.804 64.7807 115.641 64.1938H115.644Z" fill="#524BE0"/>
<path d="M117.321 70.7999C117.236 70.3441 117.221 69.9851 117.268 69.7229C117.314 69.4606 117.461 69.2577 117.705 69.1172C117.948 68.9767 118.316 68.8643 118.813 68.7738L126.697 67.3376L126.919 68.5583L119.24 69.957C118.872 70.0257 118.632 70.1069 118.522 70.2068C118.41 70.3067 118.385 70.5252 118.448 70.8655L118.497 71.1402L117.424 71.3369L117.327 70.7999H117.321Z" fill="#524BE0"/>
<path d="M117.758 74.0031C117.702 73.5442 117.702 73.1852 117.764 72.9229C117.826 72.6638 117.982 72.4702 118.232 72.3422C118.485 72.2173 118.86 72.1206 119.356 72.0581L127.306 71.0591L127.462 72.2892L119.718 73.2632C119.346 73.31 119.103 73.3819 118.988 73.4755C118.869 73.5692 118.835 73.7877 118.875 74.128L118.909 74.4059L117.826 74.5432L117.758 74.0031Z" fill="#524BE0"/>
<path d="M117.861 77.7777C117.836 77.3562 117.879 76.9347 117.989 76.5195C118.098 76.1043 118.279 75.7296 118.529 75.3956C118.781 75.0615 119.106 74.7961 119.512 74.6057L120.024 75.7733C119.596 75.9076 119.3 76.1636 119.128 76.5413C118.959 76.9191 118.884 77.3125 118.906 77.7152C118.922 78.0087 118.984 78.2834 119.087 78.5394C119.19 78.7954 119.331 79.0015 119.509 79.1576C119.687 79.3137 119.88 79.3886 120.099 79.373C120.501 79.3511 120.776 79.1732 120.926 78.8454C121.076 78.5176 121.179 78.1273 121.244 77.6809L121.391 76.6537C121.45 76.2947 121.541 75.9606 121.666 75.6484C121.791 75.3362 121.981 75.0771 122.234 74.8773C122.487 74.6744 122.836 74.562 123.279 74.537C123.723 74.512 124.1 74.6276 124.416 74.8867C124.731 75.1458 124.981 75.483 125.162 75.9013C125.343 76.3197 125.449 76.7661 125.474 77.2375C125.508 77.8182 125.418 78.3708 125.208 78.9016C124.996 79.4323 124.643 79.8194 124.144 80.063L123.651 78.9234C123.938 78.7798 124.144 78.5425 124.269 78.2147C124.394 77.8869 124.444 77.5529 124.425 77.2063C124.403 76.8317 124.3 76.4976 124.116 76.2042C123.932 75.9076 123.682 75.7702 123.367 75.7889C123.052 75.8077 122.833 75.9513 122.705 76.2198C122.577 76.4883 122.487 76.8161 122.43 77.2032L122.293 78.171C122.237 78.5675 122.146 78.9484 122.018 79.3106C121.89 79.6727 121.691 79.9755 121.413 80.2191C121.135 80.4626 120.739 80.5968 120.217 80.628C119.755 80.653 119.356 80.5344 119.016 80.269C118.675 80.0036 118.404 79.6477 118.207 79.2075C118.011 78.7642 117.895 78.2897 117.867 77.7777H117.861Z" fill="#524BE0"/>
<path d="M117.992 84.028C118.014 83.5659 118.076 83.21 118.182 82.9665C118.288 82.723 118.476 82.5575 118.744 82.4763C119.012 82.3952 119.4 82.3671 119.899 82.3889L124.394 82.5981L124.45 81.3586L125.436 81.4055L125.38 82.6449L127.222 82.7292L127.166 83.9655L125.324 83.8812L125.258 85.2955L124.272 85.2487L124.338 83.8344L120.049 83.6346C119.674 83.6158 119.424 83.6439 119.293 83.7095C119.162 83.7782 119.087 83.9874 119.072 84.3433L119.041 85.0051L117.948 84.9552L117.992 84.028Z" fill="#524BE0"/>
<path d="M117.427 88.0459C117.492 87.587 117.636 87.1811 117.858 86.8252C118.079 86.4693 118.36 86.2039 118.703 86.0228C119.047 85.8449 119.437 85.7856 119.877 85.8511C120.451 85.9354 120.876 86.2008 121.148 86.6535C121.419 87.1062 121.594 87.7118 121.666 88.4736C121.737 89.2354 121.756 90.1158 121.722 91.1148C122.334 91.2241 122.824 91.171 123.192 90.9556C123.56 90.7402 123.788 90.3406 123.872 89.7567C123.935 89.3197 123.888 88.945 123.729 88.6391C123.57 88.3331 123.32 88.1146 122.98 87.9866L123.501 86.8533C124.029 87.128 124.409 87.5401 124.64 88.0865C124.874 88.6328 124.943 89.2323 124.849 89.8848C124.703 90.8869 124.359 91.5862 123.823 91.9796C123.283 92.373 122.508 92.4979 121.494 92.3511L119.799 92.1045C119.197 92.0171 118.672 91.964 118.226 91.9484C117.78 91.9328 117.383 91.9359 117.034 91.9546L117.196 90.8307L118.232 90.684C117.904 90.4186 117.664 90.0689 117.511 89.6412C117.358 89.2104 117.33 88.6797 117.421 88.049L117.427 88.0459ZM118.369 88.4517C118.313 88.8326 118.329 89.201 118.416 89.5632C118.504 89.9253 118.694 90.2344 118.988 90.4967C119.284 90.7589 119.712 90.9306 120.277 91.0118L120.729 91.0773C120.757 90.3249 120.757 89.6693 120.726 89.1074C120.692 88.5454 120.598 88.1021 120.442 87.7774C120.286 87.4527 120.043 87.2654 119.712 87.2154C119.371 87.1655 119.078 87.2498 118.831 87.4683C118.585 87.6869 118.432 88.0147 118.366 88.4517H118.369Z" fill="#524BE0"/>
<path d="M115.847 95.851C116.028 95.1767 116.347 94.6366 116.796 94.2276C117.249 93.8186 117.786 93.5564 118.407 93.4377C119.031 93.3191 119.696 93.3566 120.411 93.5501C121.113 93.7406 121.706 94.0496 122.184 94.4805C122.665 94.9113 122.992 95.4265 123.173 96.0228C123.354 96.6222 123.351 97.2684 123.164 97.9615C122.992 98.5984 122.689 99.101 122.252 99.4726C121.815 99.8441 121.347 100.084 120.851 100.194L120.748 98.9887C121.073 98.9137 121.363 98.7514 121.613 98.5047C121.862 98.255 122.037 97.9522 122.134 97.59C122.228 97.2372 122.224 96.8813 122.125 96.516C122.025 96.1539 121.806 95.8229 121.472 95.5295C121.138 95.236 120.673 95.0081 120.074 94.8458C119.484 94.6865 118.966 94.6522 118.519 94.7396C118.073 94.827 117.714 95.0019 117.439 95.2579C117.165 95.5139 116.984 95.8198 116.887 96.1726C116.781 96.5629 116.778 96.925 116.874 97.2622C116.971 97.5994 117.133 97.8803 117.358 98.1051L116.662 99.0948C116.278 98.7046 116.003 98.2238 115.838 97.6493C115.673 97.0749 115.673 96.4723 115.841 95.8479L115.847 95.851Z" fill="#524BE0"/>
<path d="M114.939 99.5566L124.097 103.2L123.638 104.352L118.223 102.198L120.189 106.157L119.64 107.543L117.848 103.859L112.701 105.179L113.263 103.768L117.302 102.757L116.756 101.617L114.48 100.712L114.939 99.5598V99.5566Z" fill="#524BE0"/>
</g>
<defs>
<clipPath id="clip0_302_65">
<rect width="127.471" height="127.471" fill="white" transform="translate(-0.00909424 0.00561523)"/>
</clipPath>
</defs>
</svg>
